<?xml version="1.0" encoding="UTF-8" standalone="no"?>
<!-- Created with Inkscape (http://www.inkscape.org/) -->

<svg
   xmlns:dc="http://purl.org/dc/elements/1.1/"
   xmlns:cc="http://creativecommons.org/ns#"
   xmlns:rdf="http://www.w3.org/1999/02/22-rdf-syntax-ns#"
   xmlns:svg="http://www.w3.org/2000/svg"
   xmlns="http://www.w3.org/2000/svg"
   xmlns:sodipodi="http://sodipodi.sourceforge.net/DTD/sodipodi-0.dtd"
   xmlns:inkscape="http://www.inkscape.org/namespaces/inkscape"
   width="1600"
   height="900"
   id="svg24958"
   version="1.1"
   inkscape:version="0.48.4 r9939"
   sodipodi:docname="viking-2.svg"
   inkscape:export-filename="/home/jvhoof/Dropbox/Games for design and play/PROJECT FOLDER/Assets/Backgrounds/viking-2.png"
   inkscape:export-xdpi="90"
   inkscape:export-ydpi="90">
  <defs
     id="defs24960" />
  <sodipodi:namedview
     id="base"
     pagecolor="#ffffff"
     bordercolor="#666666"
     borderopacity="1.0"
     inkscape:pageopacity="0.0"
     inkscape:pageshadow="2"
     inkscape:zoom="0.25"
     inkscape:cx="286.50462"
     inkscape:cy="812.58264"
     inkscape:document-units="px"
     inkscape:current-layer="layer1"
     showgrid="false"
     showguides="true"
     inkscape:guide-bbox="true"
     inkscape:window-width="1600"
     inkscape:window-height="843"
     inkscape:window-x="0"
     inkscape:window-y="0"
     inkscape:window-maximized="1" />
  <metadata
     id="metadata24963">
    <rdf:RDF>
      <cc:Work
         rdf:about="">
        <dc:format>image/svg+xml</dc:format>
        <dc:type
           rdf:resource="http://purl.org/dc/dcmitype/StillImage" />
        <dc:title></dc:title>
      </cc:Work>
    </rdf:RDF>
  </metadata>
  <g
     inkscape:label="Layer 1"
     inkscape:groupmode="layer"
     id="layer1"
     transform="translate(0,-152.36218)">
    <rect
       style="fill:#5599ff;fill-opacity:1;stroke:#5599ff;stroke-width:0;stroke-miterlimit:4;stroke-opacity:0;stroke-dasharray:none"
       id="rect3367"
       width="1678.8572"
       height="1056.0916"
       x="-65.026909"
       y="-24.146271" />
    <path
       style="fill:#808080;stroke:#808080;stroke-width:2.44776106px;stroke-linecap:butt;stroke-linejoin:miter;stroke-opacity:1"
       d="M 1802.9693,1103.256 1743.3454,948.6266 1642.4431,903.3041 1569.0599,700.68625 1376.4284,559.38696 c 0,0 -13.7593,154.62942 -36.6918,125.30316 -22.9324,-29.32628 -41.278,-175.95763 -41.278,-175.95763 L 1147.1052,362.10114 986.57905,348.77101 936.12792,290.11847 647.18079,362.10114 c 0,0 -119.24783,127.96918 -119.24783,138.63328 0,10.66409 -137.59406,143.96532 -137.59406,143.96532 L 238.98583,530.06068 -59.134399,388.76139 -77.480294,1143.2463 z"
       id="path5785"
       inkscape:connector-curvature="0" />
    <path
       inkscape:connector-curvature="0"
       style="fill:#ffffff;stroke:#ffffff;stroke-width:2.44776106px;stroke-linecap:butt;stroke-linejoin:miter;stroke-opacity:1"
       d="m -61.979321,525.82728 3.511349,-143.75705 298.177382,141.24932 151.29593,114.65572 c 3.2e-4,0 34.42708,-33.34197 68.82592,-68.00029 17.19909,-17.32916 34.35517,-34.99158 47.25473,-48.98821 6.44962,-6.99831 11.88889,-13.06352 15.6513,-17.72906 3.76242,-4.66554 5.91925,-7.88144 5.91925,-9.21445 0,-1.33302 1.85632,-4.51973 5.11693,-9.03949 3.26061,-4.51975 7.85422,-10.39749 13.44407,-17.14587 11.17936,-13.49674 26.12852,-30.51765 41.03466,-47.1803 29.81164,-33.3253 59.59503,-65.3176 59.59503,-65.3176 l 288.94712,-71.966 50.46558,58.6692 160.52617,13.2968 151.3961,146.67301 c 0,0 1.1323,9.12279 3.2105,23.32771 2.0785,14.20492 5.1025,33.49194 8.829,53.65375 3.7267,20.1618 8.0982,41.20674 13.043,59.07743 2.4721,8.93536 5.1292,17.09485 7.8254,23.91091 2.6965,6.81606 5.4607,12.31369 8.3274,15.97949 1.4332,1.83288 2.8532,2.96243 4.2138,3.44083 1.3606,0.47841 2.6275,0.30254 3.9127,-0.40823 1.2855,-0.71077 2.6044,-1.99782 3.8128,-3.73243 1.2081,-1.73462 2.3825,-3.93864 3.5114,-6.53176 2.2573,-5.18626 4.2944,-11.9086 6.2203,-19.53697 1.926,-7.62836 3.7409,-16.15444 5.3173,-24.90233 3.1534,-17.49579 5.5757,-35.88303 7.2237,-49.92131 1.6483,-14.03829 2.5084,-23.73595 2.5084,-23.73595 l 192.6314,141.30763 c 0,0 24.6629,26.41043 13.5442,37.38266 -42.1779,41.62277 -157.157,53.11395 -238.2809,42.6314 -106.7329,-13.79166 -135.4799,-116.7771 -243.0966,-128.01083 -64.8468,-6.76913 -120.4197,31.63984 -183.50167,42.68972 -79.24022,13.88021 -160.90021,23.73014 -243.09668,29.3346 C 570.533,725.1353 458.68157,743.25377 358.9001,723.29638 238.76327,699.2677 164.89137,627.87239 65.338166,581.98875 23.59269,562.74846 -61.979321,525.82728 -61.979321,525.82728 z"
       id="path5792"
       sodipodi:nodetypes="ccccssssscsccccccscccscccsccccaaaaaaac" />
    <path
       style="opacity:0.2;fill:#ac9393;fill-opacity:1;stroke:#ac9393;stroke-width:1px;stroke-linecap:butt;stroke-linejoin:miter;stroke-opacity:1"
       d="m 717.2281,592.24382 24.74874,26.16295 117.37972,42.42641 259.50814,-28.28427 4.9498,0.7071 -33.234,19.09189 -126.57214,33.23401 -212.13203,0 -85.55992,4.94975 z"
       id="path26357"
       inkscape:connector-curvature="0"
       sodipodi:nodetypes="cccccccccc" />
    <path
       style="fill:#ac9393;stroke:#ac9393;stroke-width:1px;stroke-linecap:butt;stroke-linejoin:miter;stroke-opacity:1"
       d="m 1426.4562,1109.1389 c -17.59,-57.9087 -97.7313,-84.5419 -159.8061,-120.20818 l -325.26915,0 C 835.3735,980.85828 749.60613,952.54576 658.53824,929.53375 480.0985,917.22382 539.83986,850.35042 562.74935,795.39667 c 36.89017,-33.87 69.91089,-79.34833 119.33304,-75.62237 113.7743,-24.36109 272.92601,-21.5609 359.32291,-55.08326 44.7909,-13.7798 77.7643,-18.09639 94.9361,-46.94112 l 98.2867,-9.99301 -19.9486,41.62547 c -0.4422,43.92703 -42.9446,38.65857 -103.7452,78.07821 -175.5299,41.16639 -223.92727,71.69769 -455.35086,96.89445 -34.52288,33.61215 -12.27839,24.57637 84.97918,34.46804 73.53911,12.0519 147.07821,25.9869 220.61732,22.62741 l 294.15646,-2.82843 c 92.1706,19.17127 181.4861,48.33532 263.0437,104.65181 37.4869,28.99113 57.915,68.72023 53.7401,123.93613 z"
       id="path25033"
       inkscape:connector-curvature="0"
       sodipodi:nodetypes="cccccccccccccccccc" />
    <path
       style="fill:#cccccc;fill-opacity:1;stroke:#cccccc;stroke-width:1px;stroke-linecap:butt;stroke-linejoin:miter;stroke-opacity:1"
       d="m 1244,615.36218 -197,27 -187,17 -117,-39 -26.87868,-29.87868 40.72792,-28.05025 29.15076,17.92893 84,-9 181,-10 173,-1 z"
       id="path26355"
       inkscape:connector-curvature="0"
       sodipodi:nodetypes="ccccccccccc" />
    <path
       sodipodi:type="arc"
       style="opacity:0.2;fill:#000000;fill-opacity:1;stroke:#000000;stroke-width:1;stroke-linejoin:miter;stroke-miterlimit:4;stroke-opacity:1;stroke-dasharray:none;stroke-dashoffset:0"
       id="path26242-3"
       sodipodi:cx="959.25"
       sodipodi:cy="566.5"
       sodipodi:rx="45.75"
       sodipodi:ry="5.5"
       d="m 1005,566.5 c 0,3.03757 -20.48297,5.5 -45.75,5.5 -25.26703,0 -45.75,-2.46243 -45.75,-5.5 0,-3.03757 20.48297,-5.5 45.75,-5.5 25.26703,0 45.75,2.46243 45.75,5.5 z"
       transform="matrix(0.58845896,0,0,1.3949086,457.37,-199.86986)" />
    <path
       inkscape:connector-curvature="0"
       style="opacity:0.2;fill:#000000;stroke:#000000;stroke-width:2.44776106px;stroke-linecap:butt;stroke-linejoin:miter;stroke-opacity:1"
       d="m 310.94267,577.32157 80.06211,60.65206 c 3.3e-4,0 34.42709,-33.34197 68.82593,-68.00029 17.19909,-17.32915 34.35517,-34.99158 47.25473,-48.9882 6.44962,-6.99832 11.88889,-13.06352 15.6513,-17.72907 3.76241,-4.66554 5.91924,-7.88144 5.91924,-9.21445 0,-1.33302 1.85633,-4.51973 5.11694,-9.03948 3.2606,-4.51976 7.85422,-10.3975 13.44406,-17.14588 11.17937,-13.49674 26.12853,-30.51765 41.03467,-47.1803 29.81164,-33.3253 59.59502,-65.3176 59.59502,-65.3176 l 285.23512,-71.03289 -601.67203,841.54723 -30.09866,2.6244 -378.139639,8.0481 9.932396,-407.71012 377.838813,-151.51351 z"
       id="path5890" />
    <path
       sodipodi:type="arc"
       style="opacity:0.2;fill:#000000;fill-opacity:1;stroke:#000000;stroke-width:1;stroke-linejoin:miter;stroke-miterlimit:4;stroke-opacity:1;stroke-dasharray:none;stroke-dashoffset:0"
       id="path26242"
       sodipodi:cx="959.25"
       sodipodi:cy="566.5"
       sodipodi:rx="45.75"
       sodipodi:ry="5.5"
       d="m 1005,566.5 c 0,3.03757 -20.48297,5.5 -45.75,5.5 -25.26703,0 -45.75,-2.46243 -45.75,-5.5 0,-3.03757 20.48297,-5.5 45.75,-5.5 25.26703,0 45.75,2.46243 45.75,5.5 z"
       transform="translate(8,31.301521)" />
    <path
       sodipodi:type="arc"
       style="opacity:0.2;fill:#000000;fill-opacity:1;stroke:#000000;stroke-width:7;stroke-miterlimit:4;stroke-opacity:1;stroke-dasharray:none"
       id="path7912-15-1-4"
       sodipodi:cx="1013.183"
       sodipodi:cy="829.79437"
       sodipodi:rx="59.093925"
       sodipodi:ry="9.0913725"
       d="m 1072.2769,829.79437 c 0,5.02103 -26.4572,9.09138 -59.0939,9.09138 -32.63669,0 -59.09394,-4.07035 -59.09394,-9.09138 0,-5.02102 26.45725,-9.09137 59.09394,-9.09137 32.6367,0 59.0939,4.07035 59.0939,9.09137 z"
       transform="matrix(-1.1525996,0,0,1.191474,2220.1883,-154.023)" />
    <g
       id="g7833-53-3-1"
       transform="matrix(-0.8474711,0,0,0.91762554,1935.3311,-110.57913)">
      <path
         inkscape:connector-curvature="0"
         id="path7728-7-8-3"
         d="m 1035.7721,989.71702 -0.4516,37.20718 17.8375,0.7752 2.0322,-41.08299 z"
         style="fill:#504416;stroke:#504416;stroke-width:0.82830322px;stroke-linecap:butt;stroke-linejoin:miter;stroke-opacity:1" />
      <path
         sodipodi:nodetypes="cccccccccccccccc"
         inkscape:connector-curvature="0"
         id="path7726-3-9-8"
         d="m 1044.7823,821.9971 -49.81578,38.4077 35.11608,1.01073 -48.99916,37.39697 48.99916,2.02147 -71.45707,51.04181 66.55707,-2.02145 -89.83164,44.97744 212.73774,3.53755 -72.2737,-43.96672 56.349,5.05366 -61.6572,-51.54719 48.5908,3.03218 -56.349,-44.47208 45.7325,2.02147 z"
         style="fill:#005500;stroke:#005500;stroke-width:0.89939153px;stroke-linecap:butt;stroke-linejoin:miter;stroke-opacity:1" />
      <path
         sodipodi:nodetypes="cssscccc"
         transform="translate(0,152.36218)"
         inkscape:connector-curvature="0"
         id="path7730-68-8-7"
         d="m 979.34289,820.19795 c 0,0 3.3296,8.81477 7.07107,11.11168 11.10014,6.81444 25.88944,3.00578 38.89084,3.78807 25.4671,1.53235 52.4311,10.1755 76.5191,1.76777 5.5866,-1.94996 13.637,-11.36422 13.637,-11.36422 l 33.5876,20.70813 -213.89978,-4.29315 z"
         style="fill:#ffffff;stroke:#ffffff;stroke-width:1px;stroke-linecap:butt;stroke-linejoin:miter;stroke-opacity:1" />
      <path
         sodipodi:nodetypes="cssscccc"
         inkscape:connector-curvature="0"
         id="path7730-0-21-2-4"
         d="m 992.32989,928.43896 c 0,0 2.41096,10.33732 6.37953,13.17749 8.44478,6.04367 20.56608,3.01738 30.92088,3.80359 20.2297,1.53598 41.881,9.00256 60.8378,1.775 5.5149,-2.10263 12.8626,-12.16836 12.8626,-12.16836 l 28.4722,23.57085 -173.85273,-6.33104 z"
         style="fill:#ffffff;stroke:#ffffff;stroke-width:0.893489px;stroke-linecap:butt;stroke-linejoin:miter;stroke-opacity:1" />
      <path
         sodipodi:nodetypes="cssscccc"
         inkscape:connector-curvature="0"
         id="path7730-0-3-16-5-7"
         d="m 1018.1825,843.04461 c 0,0 -1.3342,3.98198 1.0213,5.92913 4.7649,3.93886 12.016,3.03402 18.1468,3.82921 11.8173,1.53277 24.3644,5.44843 35.7043,1.78696 3.0356,-0.98016 7.4734,-5.97751 7.4734,-5.97751 l 28.1016,19.2491 -113.34679,-8.16599 z"
         style="fill:#ffffff;stroke:#ffffff;stroke-width:0.68678504px;stroke-linecap:butt;stroke-linejoin:miter;stroke-opacity:1" />
      <path
         sodipodi:nodetypes="csascccc"
         inkscape:connector-curvature="0"
         id="path7730-0-3-9-2-4-6"
         d="m 1007.1154,879.44981 c 0,0 1.9401,6.57632 4.5375,8.43073 6.3829,4.55713 15.4136,3.02766 23.2164,3.81845 15.1602,1.53643 30.8702,5.3734 45.6788,1.78193 3.2185,-0.78057 8.6474,-4.89228 8.6474,-4.89228 l 30.4692,22.40021 -138.61508,-12.41668 z"
         style="fill:#ffffff;stroke:#ffffff;stroke-width:0.77572256px;stroke-linecap:butt;stroke-linejoin:miter;stroke-opacity:1" />
      <path
         transform="translate(0,152.36218)"
         sodipodi:nodetypes="cccc"
         inkscape:connector-curvature="0"
         id="path7786-2-3-3"
         d="m 1078.3378,804.54058 -144.2732,37.6155 216.4991,4.30584 z"
         style="opacity:0.2;fill:#000000;stroke:#000000;stroke-width:1px;stroke-linecap:butt;stroke-linejoin:miter;stroke-opacity:1" />
      <path
         sodipodi:nodetypes="cccc"
         inkscape:connector-curvature="0"
         id="path7786-1-68-6-6"
         d="m 1083.6415,921.48085 -127.25686,32.04474 177.74146,4.95899 z"
         style="opacity:0.2;fill:#000000;stroke:#000000;stroke-width:0.86684752px;stroke-linecap:butt;stroke-linejoin:miter;stroke-opacity:1" />
      <path
         sodipodi:nodetypes="cccc"
         inkscape:connector-curvature="0"
         id="path7786-8-5-6-8"
         d="m 1064.1564,866.37571 -84.08503,31.75965 138.44913,12.41879 z"
         style="opacity:0.2;fill:#000000;stroke:#000000;stroke-width:0.76320058px;stroke-linecap:butt;stroke-linejoin:miter;stroke-opacity:1" />
      <path
         sodipodi:nodetypes="cccc"
         inkscape:connector-curvature="0"
         id="path7786-8-4-0-6-1"
         d="m 1073.9359,841.84487 -78.9994,17.16225 114.7798,8.90273 z"
         style="opacity:0.2;fill:#000000;stroke:#000000;stroke-width:0.6939193px;stroke-linecap:butt;stroke-linejoin:miter;stroke-opacity:1" />
      <path
         sodipodi:nodetypes="ccccc"
         transform="translate(0,152.36218)"
         inkscape:connector-curvature="0"
         id="path7831-7-2-6"
         d="m 1055.3569,845.19922 -9.6181,-0.70993 -5.3324,29.64722 13.1827,0.86221 z"
         style="opacity:0.2;fill:#000000;stroke:#000000;stroke-width:1px;stroke-linecap:butt;stroke-linejoin:miter;stroke-opacity:1" />
    </g>
    <path
       sodipodi:type="arc"
       style="opacity:0.2;fill:#000000;fill-opacity:1;stroke:#000000;stroke-width:7;stroke-miterlimit:4;stroke-opacity:1;stroke-dasharray:none"
       id="path7912-15-1-4-5"
       sodipodi:cx="1013.183"
       sodipodi:cy="829.79437"
       sodipodi:rx="59.093925"
       sodipodi:ry="9.0913725"
       d="m 1072.2769,829.79437 c 0,5.02103 -26.4572,9.09138 -59.0939,9.09138 -32.63669,0 -59.09394,-4.07035 -59.09394,-9.09138 0,-5.02102 26.45725,-9.09137 59.09394,-9.09137 32.6367,0 59.0939,4.07035 59.0939,9.09137 z"
       transform="matrix(-1.1525996,0,0,1.191474,1962.1883,71.889701)" />
    <g
       id="g7833-53-3-1-6"
       transform="matrix(-0.8474711,0,0,0.91762554,1677.3311,115.33357)">
      <path
         inkscape:connector-curvature="0"
         id="path7728-7-8-3-5"
         d="m 1035.7721,989.71702 -0.4516,37.20718 17.8375,0.7752 2.0322,-41.08299 z"
         style="fill:#504416;stroke:#504416;stroke-width:0.82830322px;stroke-linecap:butt;stroke-linejoin:miter;stroke-opacity:1" />
      <path
         sodipodi:nodetypes="cccccccccccccccc"
         inkscape:connector-curvature="0"
         id="path7726-3-9-8-9"
         d="m 1044.7823,821.9971 -49.81578,38.4077 35.11608,1.01073 -48.99916,37.39697 48.99916,2.02147 -71.45707,51.04181 66.55707,-2.02145 -89.83164,44.97744 212.73774,3.53755 -72.2737,-43.96672 56.349,5.05366 -61.6572,-51.54719 48.5908,3.03218 -56.349,-44.47208 45.7325,2.02147 z"
         style="fill:#005500;stroke:#005500;stroke-width:0.89939153px;stroke-linecap:butt;stroke-linejoin:miter;stroke-opacity:1" />
      <path
         sodipodi:nodetypes="cssscccc"
         transform="translate(0,152.36218)"
         inkscape:connector-curvature="0"
         id="path7730-68-8-7-9"
         d="m 979.34289,820.19795 c 0,0 3.3296,8.81477 7.07107,11.11168 11.10014,6.81444 25.88944,3.00578 38.89084,3.78807 25.4671,1.53235 52.4311,10.1755 76.5191,1.76777 5.5866,-1.94996 13.637,-11.36422 13.637,-11.36422 l 33.5876,20.70813 -213.89978,-4.29315 z"
         style="fill:#ffffff;stroke:#ffffff;stroke-width:1px;stroke-linecap:butt;stroke-linejoin:miter;stroke-opacity:1" />
      <path
         sodipodi:nodetypes="cssscccc"
         inkscape:connector-curvature="0"
         id="path7730-0-21-2-4-0"
         d="m 992.32989,928.43896 c 0,0 2.41096,10.33732 6.37953,13.17749 8.44478,6.04367 20.56608,3.01738 30.92088,3.80359 20.2297,1.53598 41.881,9.00256 60.8378,1.775 5.5149,-2.10263 12.8626,-12.16836 12.8626,-12.16836 l 28.4722,23.57085 -173.85273,-6.33104 z"
         style="fill:#ffffff;stroke:#ffffff;stroke-width:0.893489px;stroke-linecap:butt;stroke-linejoin:miter;stroke-opacity:1" />
      <path
         sodipodi:nodetypes="cssscccc"
         inkscape:connector-curvature="0"
         id="path7730-0-3-16-5-7-3"
         d="m 1018.1825,843.04461 c 0,0 -1.3342,3.98198 1.0213,5.92913 4.7649,3.93886 12.016,3.03402 18.1468,3.82921 11.8173,1.53277 24.3644,5.44843 35.7043,1.78696 3.0356,-0.98016 7.4734,-5.97751 7.4734,-5.97751 l 28.1016,19.2491 -113.34679,-8.16599 z"
         style="fill:#ffffff;stroke:#ffffff;stroke-width:0.68678504px;stroke-linecap:butt;stroke-linejoin:miter;stroke-opacity:1" />
      <path
         sodipodi:nodetypes="csascccc"
         inkscape:connector-curvature="0"
         id="path7730-0-3-9-2-4-6-5"
         d="m 1007.1154,879.44981 c 0,0 1.9401,6.57632 4.5375,8.43073 6.3829,4.55713 15.4136,3.02766 23.2164,3.81845 15.1602,1.53643 30.8702,5.3734 45.6788,1.78193 3.2185,-0.78057 8.6474,-4.89228 8.6474,-4.89228 l 30.4692,22.40021 -138.61508,-12.41668 z"
         style="fill:#ffffff;stroke:#ffffff;stroke-width:0.77572256px;stroke-linecap:butt;stroke-linejoin:miter;stroke-opacity:1" />
      <path
         transform="translate(0,152.36218)"
         sodipodi:nodetypes="cccc"
         inkscape:connector-curvature="0"
         id="path7786-2-3-3-7"
         d="m 1078.3378,804.54058 -144.2732,37.6155 216.4991,4.30584 z"
         style="opacity:0.2;fill:#000000;stroke:#000000;stroke-width:1px;stroke-linecap:butt;stroke-linejoin:miter;stroke-opacity:1" />
      <path
         sodipodi:nodetypes="cccc"
         inkscape:connector-curvature="0"
         id="path7786-1-68-6-6-0"
         d="m 1083.6415,921.48085 -127.25686,32.04474 177.74146,4.95899 z"
         style="opacity:0.2;fill:#000000;stroke:#000000;stroke-width:0.86684752px;stroke-linecap:butt;stroke-linejoin:miter;stroke-opacity:1" />
      <path
         sodipodi:nodetypes="cccc"
         inkscape:connector-curvature="0"
         id="path7786-8-5-6-8-9"
         d="m 1064.1564,866.37571 -84.08503,31.75965 138.44913,12.41879 z"
         style="opacity:0.2;fill:#000000;stroke:#000000;stroke-width:0.76320058px;stroke-linecap:butt;stroke-linejoin:miter;stroke-opacity:1" />
      <path
         sodipodi:nodetypes="cccc"
         inkscape:connector-curvature="0"
         id="path7786-8-4-0-6-1-2"
         d="m 1073.9359,841.84487 -78.9994,17.16225 114.7798,8.90273 z"
         style="opacity:0.2;fill:#000000;stroke:#000000;stroke-width:0.6939193px;stroke-linecap:butt;stroke-linejoin:miter;stroke-opacity:1" />
      <path
         sodipodi:nodetypes="ccccc"
         transform="translate(0,152.36218)"
         inkscape:connector-curvature="0"
         id="path7831-7-2-6-7"
         d="m 1055.3569,845.19922 -9.6181,-0.70993 -5.3324,29.64722 13.1827,0.86221 z"
         style="opacity:0.2;fill:#000000;stroke:#000000;stroke-width:1px;stroke-linecap:butt;stroke-linejoin:miter;stroke-opacity:1" />
    </g>
    <path
       sodipodi:type="arc"
       style="opacity:0.2;fill:#000000;fill-opacity:1;stroke:#000000;stroke-width:7;stroke-miterlimit:4;stroke-opacity:1;stroke-dasharray:none"
       id="path7912-15-1-4-53"
       sodipodi:cx="1013.183"
       sodipodi:cy="829.79437"
       sodipodi:rx="59.093925"
       sodipodi:ry="9.0913725"
       d="m 1072.2769,829.79437 c 0,5.02103 -26.4572,9.09138 -59.0939,9.09138 -32.63669,0 -59.09394,-4.07035 -59.09394,-9.09138 0,-5.02102 26.45725,-9.09137 59.09394,-9.09137 32.6367,0 59.0939,4.07035 59.0939,9.09137 z"
       transform="matrix(-1.1525996,0,0,1.191474,2700.1883,-42.110298)" />
    <g
       id="g7833-53-3-1-1"
       transform="matrix(-0.8474711,0,0,0.91762554,2415.3311,1.3335706)">
      <path
         inkscape:connector-curvature="0"
         id="path7728-7-8-3-50"
         d="m 1035.7721,989.71702 -0.4516,37.20718 17.8375,0.7752 2.0322,-41.08299 z"
         style="fill:#504416;stroke:#504416;stroke-width:0.82830322px;stroke-linecap:butt;stroke-linejoin:miter;stroke-opacity:1" />
      <path
         sodipodi:nodetypes="cccccccccccccccc"
         inkscape:connector-curvature="0"
         id="path7726-3-9-8-94"
         d="m 1044.7823,821.9971 -49.81578,38.4077 35.11608,1.01073 -48.99916,37.39697 48.99916,2.02147 -71.45707,51.04181 66.55707,-2.02145 -89.83164,44.97744 212.73774,3.53755 -72.2737,-43.96672 56.349,5.05366 -61.6572,-51.54719 48.5908,3.03218 -56.349,-44.47208 45.7325,2.02147 z"
         style="fill:#005500;stroke:#005500;stroke-width:0.89939153px;stroke-linecap:butt;stroke-linejoin:miter;stroke-opacity:1" />
      <path
         sodipodi:nodetypes="cssscccc"
         transform="translate(0,152.36218)"
         inkscape:connector-curvature="0"
         id="path7730-68-8-7-5"
         d="m 979.34289,820.19795 c 0,0 3.3296,8.81477 7.07107,11.11168 11.10014,6.81444 25.88944,3.00578 38.89084,3.78807 25.4671,1.53235 52.4311,10.1755 76.5191,1.76777 5.5866,-1.94996 13.637,-11.36422 13.637,-11.36422 l 33.5876,20.70813 -213.89978,-4.29315 z"
         style="fill:#ffffff;stroke:#ffffff;stroke-width:1px;stroke-linecap:butt;stroke-linejoin:miter;stroke-opacity:1" />
      <path
         sodipodi:nodetypes="cssscccc"
         inkscape:connector-curvature="0"
         id="path7730-0-21-2-4-8"
         d="m 992.32989,928.43896 c 0,0 2.41096,10.33732 6.37953,13.17749 8.44478,6.04367 20.56608,3.01738 30.92088,3.80359 20.2297,1.53598 41.881,9.00256 60.8378,1.775 5.5149,-2.10263 12.8626,-12.16836 12.8626,-12.16836 l 28.4722,23.57085 -173.85273,-6.33104 z"
         style="fill:#ffffff;stroke:#ffffff;stroke-width:0.893489px;stroke-linecap:butt;stroke-linejoin:miter;stroke-opacity:1" />
      <path
         sodipodi:nodetypes="cssscccc"
         inkscape:connector-curvature="0"
         id="path7730-0-3-16-5-7-6"
         d="m 1018.1825,843.04461 c 0,0 -1.3342,3.98198 1.0213,5.92913 4.7649,3.93886 12.016,3.03402 18.1468,3.82921 11.8173,1.53277 24.3644,5.44843 35.7043,1.78696 3.0356,-0.98016 7.4734,-5.97751 7.4734,-5.97751 l 28.1016,19.2491 -113.34679,-8.16599 z"
         style="fill:#ffffff;stroke:#ffffff;stroke-width:0.68678504px;stroke-linecap:butt;stroke-linejoin:miter;stroke-opacity:1" />
      <path
         sodipodi:nodetypes="csascccc"
         inkscape:connector-curvature="0"
         id="path7730-0-3-9-2-4-6-3"
         d="m 1007.1154,879.44981 c 0,0 1.9401,6.57632 4.5375,8.43073 6.3829,4.55713 15.4136,3.02766 23.2164,3.81845 15.1602,1.53643 30.8702,5.3734 45.6788,1.78193 3.2185,-0.78057 8.6474,-4.89228 8.6474,-4.89228 l 30.4692,22.40021 -138.61508,-12.41668 z"
         style="fill:#ffffff;stroke:#ffffff;stroke-width:0.77572256px;stroke-linecap:butt;stroke-linejoin:miter;stroke-opacity:1" />
      <path
         transform="translate(0,152.36218)"
         sodipodi:nodetypes="cccc"
         inkscape:connector-curvature="0"
         id="path7786-2-3-3-3"
         d="m 1078.3378,804.54058 -144.2732,37.6155 216.4991,4.30584 z"
         style="opacity:0.2;fill:#000000;stroke:#000000;stroke-width:1px;stroke-linecap:butt;stroke-linejoin:miter;stroke-opacity:1" />
      <path
         sodipodi:nodetypes="cccc"
         inkscape:connector-curvature="0"
         id="path7786-1-68-6-6-4"
         d="m 1083.6415,921.48085 -127.25686,32.04474 177.74146,4.95899 z"
         style="opacity:0.2;fill:#000000;stroke:#000000;stroke-width:0.86684752px;stroke-linecap:butt;stroke-linejoin:miter;stroke-opacity:1" />
      <path
         sodipodi:nodetypes="cccc"
         inkscape:connector-curvature="0"
         id="path7786-8-5-6-8-7"
         d="m 1064.1564,866.37571 -84.08503,31.75965 138.44913,12.41879 z"
         style="opacity:0.2;fill:#000000;stroke:#000000;stroke-width:0.76320058px;stroke-linecap:butt;stroke-linejoin:miter;stroke-opacity:1" />
      <path
         sodipodi:nodetypes="cccc"
         inkscape:connector-curvature="0"
         id="path7786-8-4-0-6-1-1"
         d="m 1073.9359,841.84487 -78.9994,17.16225 114.7798,8.90273 z"
         style="opacity:0.2;fill:#000000;stroke:#000000;stroke-width:0.6939193px;stroke-linecap:butt;stroke-linejoin:miter;stroke-opacity:1" />
      <path
         sodipodi:nodetypes="ccccc"
         transform="translate(0,152.36218)"
         inkscape:connector-curvature="0"
         id="path7831-7-2-6-6"
         d="m 1055.3569,845.19922 -9.6181,-0.70993 -5.3324,29.64722 13.1827,0.86221 z"
         style="opacity:0.2;fill:#000000;stroke:#000000;stroke-width:1px;stroke-linecap:butt;stroke-linejoin:miter;stroke-opacity:1" />
    </g>
    <path
       sodipodi:type="arc"
       style="opacity:0.2;fill:#000000;fill-opacity:1;stroke:#000000;stroke-width:7;stroke-miterlimit:4;stroke-opacity:1;stroke-dasharray:none"
       id="path7912-15-1-4-2"
       sodipodi:cx="1013.183"
       sodipodi:cy="829.79437"
       sodipodi:rx="59.093925"
       sodipodi:ry="9.0913725"
       d="m 1072.2769,829.79437 c 0,5.02103 -26.4572,9.09138 -59.0939,9.09138 -32.63669,0 -59.09394,-4.07035 -59.09394,-9.09138 0,-5.02102 26.45725,-9.09137 59.09394,-9.09137 32.6367,0 59.0939,4.07035 59.0939,9.09137 z"
       transform="matrix(-1.1525996,0,0,1.191474,1258.1883,-444.1103)" />
    <g
       id="g7833-53-3-1-7"
       transform="matrix(-0.8474711,0,0,0.91762554,973.3311,-400.66643)">
      <path
         inkscape:connector-curvature="0"
         id="path7728-7-8-3-4"
         d="m 1035.7721,989.71702 -0.4516,37.20718 17.8375,0.7752 2.0322,-41.08299 z"
         style="fill:#504416;stroke:#504416;stroke-width:0.82830322px;stroke-linecap:butt;stroke-linejoin:miter;stroke-opacity:1" />
      <path
         sodipodi:nodetypes="cccccccccccccccc"
         inkscape:connector-curvature="0"
         id="path7726-3-9-8-8"
         d="m 1044.7823,821.9971 -49.81578,38.4077 35.11608,1.01073 -48.99916,37.39697 48.99916,2.02147 -71.45707,51.04181 66.55707,-2.02145 -89.83164,44.97744 212.73774,3.53755 -72.2737,-43.96672 56.349,5.05366 -61.6572,-51.54719 48.5908,3.03218 -56.349,-44.47208 45.7325,2.02147 z"
         style="fill:#005500;stroke:#005500;stroke-width:0.89939153px;stroke-linecap:butt;stroke-linejoin:miter;stroke-opacity:1" />
      <path
         sodipodi:nodetypes="cssscccc"
         transform="translate(0,152.36218)"
         inkscape:connector-curvature="0"
         id="path7730-68-8-7-4"
         d="m 979.34289,820.19795 c 0,0 3.3296,8.81477 7.07107,11.11168 11.10014,6.81444 25.88944,3.00578 38.89084,3.78807 25.4671,1.53235 52.4311,10.1755 76.5191,1.76777 5.5866,-1.94996 13.637,-11.36422 13.637,-11.36422 l 33.5876,20.70813 -213.89978,-4.29315 z"
         style="fill:#ffffff;stroke:#ffffff;stroke-width:1px;stroke-linecap:butt;stroke-linejoin:miter;stroke-opacity:1" />
      <path
         sodipodi:nodetypes="cssscccc"
         inkscape:connector-curvature="0"
         id="path7730-0-21-2-4-3"
         d="m 992.32989,928.43896 c 0,0 2.41096,10.33732 6.37953,13.17749 8.44478,6.04367 20.56608,3.01738 30.92088,3.80359 20.2297,1.53598 41.881,9.00256 60.8378,1.775 5.5149,-2.10263 12.8626,-12.16836 12.8626,-12.16836 l 28.4722,23.57085 -173.85273,-6.33104 z"
         style="fill:#ffffff;stroke:#ffffff;stroke-width:0.893489px;stroke-linecap:butt;stroke-linejoin:miter;stroke-opacity:1" />
      <path
         sodipodi:nodetypes="cssscccc"
         inkscape:connector-curvature="0"
         id="path7730-0-3-16-5-7-7"
         d="m 1018.1825,843.04461 c 0,0 -1.3342,3.98198 1.0213,5.92913 4.7649,3.93886 12.016,3.03402 18.1468,3.82921 11.8173,1.53277 24.3644,5.44843 35.7043,1.78696 3.0356,-0.98016 7.4734,-5.97751 7.4734,-5.97751 l 28.1016,19.2491 -113.34679,-8.16599 z"
         style="fill:#ffffff;stroke:#ffffff;stroke-width:0.68678504px;stroke-linecap:butt;stroke-linejoin:miter;stroke-opacity:1" />
      <path
         sodipodi:nodetypes="csascccc"
         inkscape:connector-curvature="0"
         id="path7730-0-3-9-2-4-6-4"
         d="m 1007.1154,879.44981 c 0,0 1.9401,6.57632 4.5375,8.43073 6.3829,4.55713 15.4136,3.02766 23.2164,3.81845 15.1602,1.53643 30.8702,5.3734 45.6788,1.78193 3.2185,-0.78057 8.6474,-4.89228 8.6474,-4.89228 l 30.4692,22.40021 -138.61508,-12.41668 z"
         style="fill:#ffffff;stroke:#ffffff;stroke-width:0.77572256px;stroke-linecap:butt;stroke-linejoin:miter;stroke-opacity:1" />
      <path
         transform="translate(0,152.36218)"
         sodipodi:nodetypes="cccc"
         inkscape:connector-curvature="0"
         id="path7786-2-3-3-6"
         d="m 1078.3378,804.54058 -144.2732,37.6155 216.4991,4.30584 z"
         style="opacity:0.2;fill:#000000;stroke:#000000;stroke-width:1px;stroke-linecap:butt;stroke-linejoin:miter;stroke-opacity:1" />
      <path
         sodipodi:nodetypes="cccc"
         inkscape:connector-curvature="0"
         id="path7786-1-68-6-6-5"
         d="m 1083.6415,921.48085 -127.25686,32.04474 177.74146,4.95899 z"
         style="opacity:0.2;fill:#000000;stroke:#000000;stroke-width:0.86684752px;stroke-linecap:butt;stroke-linejoin:miter;stroke-opacity:1" />
      <path
         sodipodi:nodetypes="cccc"
         inkscape:connector-curvature="0"
         id="path7786-8-5-6-8-2"
         d="m 1064.1564,866.37571 -84.08503,31.75965 138.44913,12.41879 z"
         style="opacity:0.2;fill:#000000;stroke:#000000;stroke-width:0.76320058px;stroke-linecap:butt;stroke-linejoin:miter;stroke-opacity:1" />
      <path
         sodipodi:nodetypes="cccc"
         inkscape:connector-curvature="0"
         id="path7786-8-4-0-6-1-8"
         d="m 1073.9359,841.84487 -78.9994,17.16225 114.7798,8.90273 z"
         style="opacity:0.2;fill:#000000;stroke:#000000;stroke-width:0.6939193px;stroke-linecap:butt;stroke-linejoin:miter;stroke-opacity:1" />
      <path
         sodipodi:nodetypes="ccccc"
         transform="translate(0,152.36218)"
         inkscape:connector-curvature="0"
         id="path7831-7-2-6-4"
         d="m 1055.3569,845.19922 -9.6181,-0.70993 -5.3324,29.64722 13.1827,0.86221 z"
         style="opacity:0.2;fill:#000000;stroke:#000000;stroke-width:1px;stroke-linecap:butt;stroke-linejoin:miter;stroke-opacity:1" />
    </g>
    <path
       style="opacity:0.67634858;fill:#ffffff;stroke:#ffffff;stroke-width:1.30754507px;stroke-linecap:butt;stroke-linejoin:miter;stroke-opacity:1"
       d="m 750.6991,784.63697 c 16.59784,-57.1892 -4.36794,-104.39165 -54.17828,-106.30491 -43.12547,-1.65648 -86.14623,-5.04421 -129.21927,43.92393 -84.73835,-28.3063 -139.46487,-28.4169 -171.8059,-7.49656 -32.34104,20.92034 -42.29659,62.87175 -37.4927,118.6893 9.49611,17.02409 -8.89573,43.21602 -8.40825,64.99637 0.48718,21.7806 19.85383,39.1497 104.86766,38.5279 6.17632,41.6311 115.83044,-13.3439 182.69762,-8.8991 48.98585,3.2564 37.56406,126.4331 128.52056,58.7441 44.84294,-2.0874 34.94936,-58.7909 63.57936,-71.0334 53.67443,-22.9515 78.93297,-52.95596 52.89995,-93.83862 -1.20621,-20.13739 -51.96908,-32.96585 -60.47234,-45.76923 -27.85627,-41.94279 -59.38888,5.76496 -70.98841,8.46022 z"
       id="path7499"
       inkscape:connector-curvature="0"
       sodipodi:nodetypes="cscscscscscsc" />
    <path
       style="opacity:0.67634858;fill:#ffffff;stroke:#ffffff;stroke-width:1.30754507px;stroke-linecap:butt;stroke-linejoin:miter;stroke-opacity:1"
       d="m 563.03014,617.95637 c -43.07289,-49.21752 -86.14623,-71.78448 -129.21913,-74.59779 -43.07304,-2.81333 -86.14623,-5.04422 -129.21912,43.92393 -84.7385,-28.3063 -139.46501,-28.41691 -171.80605,-7.49655 -32.34104,20.92035 -42.296593,62.87169 -37.492701,118.68929 9.496101,17.02398 -8.895732,43.21596 -8.408251,64.9963 0.487178,21.78061 19.853822,39.14963 104.867662,38.52791 6.17632,41.63129 63.47632,64.9914 130.3435,69.4364 48.9857,3.25614 89.91819,48.09794 180.87468,-19.59139 29.9503,-24.37063 72.08657,-12.55636 100.22727,-37.46098 28.14039,-24.90462 42.28507,-86.52811 16.25189,-127.41094 -1.20605,-20.1374 10.85596,-38.56126 2.35254,-51.36459 -27.85642,-41.94282 -47.17291,-20.34693 -58.77229,-17.65159 z"
       id="path7499-8"
       inkscape:connector-curvature="0"
       sodipodi:nodetypes="cscscscscscsc" />
    <path
       style="opacity:0.67634858;fill:#ffffff;stroke:#ffffff;stroke-width:1.12374794px;stroke-linecap:butt;stroke-linejoin:miter;stroke-opacity:1"
       d="m 1552.9332,685.55781 c -37.6237,-41.61854 -75.2477,-60.70125 -112.8715,-63.0802 -37.6238,-2.37897 -75.2478,-4.26542 -112.8715,37.14226 -74.0181,-23.93593 -121.8211,-24.02947 -150.0706,-6.33912 -28.2496,17.69034 -36.9455,53.16458 -32.7495,100.36418 8.2949,14.39555 -7.7703,36.54347 -7.3445,54.96125 0.4256,18.41777 17.3422,33.10509 91.6008,32.57936 5.3949,35.20336 55.4458,54.95706 113.8535,58.71546 42.7887,2.7536 78.5427,40.6718 157.9921,-16.5663 26.1612,-20.60816 62.9667,-10.61775 87.5473,-31.67721 24.5803,-21.05942 36.9356,-73.16874 14.1959,-107.7393 -1.0535,-17.02825 9.4826,-32.60755 2.0549,-43.4341 -24.3321,-35.46705 -41.205,-17.20546 -51.3369,-14.92628 z"
       id="path7499-8-2"
       inkscape:connector-curvature="0"
       sodipodi:nodetypes="cscscscscscsc" />
    <g
       id="g26329"
       transform="matrix(0.90570356,0,0,0.89862498,84.943592,-35.383048)">
      <path
         sodipodi:nodetypes="cszscc"
         inkscape:connector-curvature="0"
         id="path25594-7"
         d="m 791.75579,678.30445 c 0,0 -1.50391,-66.73805 23.86833,-93.04568 25.35238,-26.28702 37.1138,-56.57642 51.00923,-57.68364 13.89544,-1.10723 59.98235,24.0713 63.12384,58.62439 2.40976,26.50497 21.23437,71.02715 21.23437,71.02715 z"
         style="fill:#502d16;stroke:#502d16;stroke-width:0.67669135px;stroke-linecap:butt;stroke-linejoin:miter;stroke-opacity:1" />
      <path
         inkscape:connector-curvature="0"
         id="path26327"
         d="m 874.51647,541.20977 5.3033,12.72792 4.24264,23.33453 -20.85965,16.26345 7.42462,23.33452 0.35355,14.14214 0,25.10229 0,11.66726 -67.88225,8.48528 c 0,0 9.54594,-73.5391 10.96016,-76.01397 1.41421,-2.47488 53.03301,-60.10408 53.03301,-60.10408 z"
         style="fill:#28170b;stroke:#28170b;stroke-width:1px;stroke-linecap:butt;stroke-linejoin:miter;stroke-opacity:1" />
      <path
         sodipodi:nodetypes="cszscc"
         inkscape:connector-curvature="0"
         id="path25594"
         d="m 810.62505,675.48847 c 0,0 16.9188,-59.19322 39.68849,-83.47851 22.7518,-24.26625 15.03841,-54.64164 27.50854,-55.66374 12.47003,-1.02211 53.82964,22.22086 56.64885,54.11775 2.16261,24.46743 19.05623,65.56705 19.05623,65.56705 z"
         style="fill:#000000;stroke:#000000;stroke-width:0.6159144px;stroke-linecap:butt;stroke-linejoin:miter;stroke-opacity:1" />
      <path
         transform="translate(0,152.36218)"
         sodipodi:nodetypes="csssssssscscscccccccccccccccscccccccscsccccccccccccccccccccccccccc"
         inkscape:connector-curvature="0"
         id="path26240"
         d="m 797.61645,523.11209 c 0,0 -0.70711,-7.07107 -2.12132,-10.96016 -1.41422,-3.88909 -4.5962,-8.83884 -2.47487,-12.72792 2.12132,-3.88909 6.0104,-23.68807 6.7175,-27.22361 0.70711,-3.53553 10.25306,-5.3033 9.54595,-11.31371 -0.70711,-6.01041 -4.24264,-15.9099 -1.41422,-18.38478 2.82843,-2.47487 5.65686,-0.35355 8.13173,-3.53553 2.47488,-3.18198 7.42462,-11.66726 9.19239,-13.08148 1.76777,-1.41421 8.48528,-3.53553 10.25305,-4.59619 1.76777,-1.06066 8.48528,-12.37437 8.48528,-12.37437 0,0 6.01041,-12.37437 6.01041,-13.78858 0,-1.41421 3.88909,-4.94975 3.88909,-4.94975 0,0 13.08147,-0.35355 15.20279,-0.7071 2.12132,-0.35356 31.46625,4.59619 31.46625,4.59619 l 4.94975,12.02082 16.61701,4.94974 2.82843,13.08148 8.13172,13.08148 1.41422,16.26345 4.24264,17.32412 5.19239,13.02081 5.41421,11.02082 -8.83883,12.37436 -9.19239,0.35356 -23.68808,2.12132 -7.77817,2.12132 -25.45585,0 -31.46625,6.71751 c 0,0 -8.13173,1.76777 -10.6066,0.35355 -2.47488,-1.41421 -13.08148,-2.12131 -13.08148,-2.12131 l -5.65685,4.24264 -9.54594,1.76776 -5.42462,2.26041 6.83883,13.29594 7.07107,-11.31371 20.85965,14.84925 c 0,0 8.83883,1.41421 10.96015,-0.70711 2.12132,-2.12132 9.8995,-8.83883 9.8995,-8.83883 0,0 8.48528,-4.94975 10.25305,-5.30331 1.76776,-0.35355 28.99137,-2.12132 28.99137,-2.12132 l 20.5061,-2.12132 15.9099,-3.53553 11.66727,1.06066 24.04163,-19.44544 0,-10.96015 -4.94975,-14.84924 -1.06066,-39.95154 -21.56676,-10.96015 -2.47487,-16.26346 -15.2028,-15.20279 -6.71751,-12.37437 -33.23402,-6.36396 -24.04163,-4.94975 -26.51651,31.8198 -9.19238,5.65686 -13.08148,13.43503 1.41421,7.07107 -4.94974,10.96015 -17.32412,17.32412 3.88909,10.6066 3.18198,9.89949 -13.78858,18.73833 -1.06066,21.56676 8.83883,10.25305 17.32412,12.37437 z"
         style="fill:#784421;stroke:#784421;stroke-width:1px;stroke-linecap:butt;stroke-linejoin:miter;stroke-opacity:1" />
    </g>
    <g
       id="g25531"
       transform="translate(-9.12637,117.3033)">
      <path
         sodipodi:nodetypes="ccccccccccccccsccc"
         inkscape:connector-curvature="0"
         id="path25509"
         d="m 948.25,477.11218 51.75,0.25 -0.5,-19.75 c -6.9714,-6.70112 -7.5794,-14.4834 -7.5277,-22.82322 l 7.5277,-0.42678 0.6464,-3.02773 9.7652,0.0581 0.25,-19.75 -10.4116,0.71963 0,-3.35095 -51.4393,0.4545 -0.061,2.39645 -23.5,-1 c 0.543,11.02913 7.6281,18.17395 23.25,20.25 0,0 -0.25,5.25 -0.25,4.25 0,-1 8.25,-1 8.25,-1 1.2955,7.60543 -0.3293,15.12974 -7.5,22.5 z"
         style="fill:#666666;fill-opacity:1;stroke:#666666;stroke-width:1px;stroke-linecap:butt;stroke-linejoin:miter;stroke-opacity:1" />
      <path
         transform="translate(0,152.36218)"
         inkscape:connector-curvature="0"
         id="path25511"
         d="m 948.23019,304.79287 51.26524,0.70711 0.88387,19.62221 -51.97233,-0.88388 z"
         style="fill:#6c5353;stroke:#6c5353;stroke-width:1px;stroke-linecap:butt;stroke-linejoin:miter;stroke-opacity:1" />
      <path
         sodipodi:nodetypes="ccccc"
         inkscape:connector-curvature="0"
         id="path25511-6"
         d="m 948.31858,409.86729 51.26524,-0.7071 0.53028,25.10228 -52.50262,0.35356 z"
         style="fill:#6c5353;stroke:#6c5353;stroke-width:1px;stroke-linecap:butt;stroke-linejoin:miter;stroke-opacity:1" />
    </g>
    <path
       style="fill:#ac9d93;fill-opacity:1;stroke:#ac9d93;stroke-width:0.27424544px;stroke-linecap:butt;stroke-linejoin:miter;stroke-opacity:1"
       d="m 1008.5151,484.90888 -3.6598,6.29093 c -1.6527,3.31573 -7.7095,6.98989 -11.565,10.48489 3.5237,0.0993 5.0204,3.3331 6.4413,6.6841 4.0014,-4.40012 8.2956,-9.48664 12.297,-12.9095 l 2.7814,-5.17692 -6.2949,-4.84926 z"
       id="path12979-4"
       inkscape:connector-curvature="0"
       sodipodi:nodetypes="cccccccc" />
    <path
       style="fill:#ac9d93;fill-opacity:1;stroke:#ac9d93;stroke-width:0.27424544px;stroke-linecap:butt;stroke-linejoin:miter;stroke-opacity:1"
       d="m 1040.0109,485.21746 2.7058,6.75634 c 1.5961,3.34333 0.7643,10.37839 1.146,15.5682 2.247,-2.71615 5.7171,-1.9051 9.2325,-0.96298 -1.0052,-5.86189 -2.3714,-12.37698 -2.6064,-17.6374 l -2.3684,-5.37841 -7.6963,1.97689 z"
       id="path12979-4-5"
       inkscape:connector-curvature="0"
       sodipodi:nodetypes="cccccccc" />
    <path
       style="fill:#ffb380;fill-opacity:1;stroke:#ffb380;stroke-width:0.27424544px;stroke-linecap:butt;stroke-linejoin:miter;stroke-opacity:1"
       d="m 1044.6452,509.31622 0.1761,-2.62094 c 1.925,-2.36902 4.7063,-1.64619 7.7387,-0.0165 l 0.7402,3.03921 c 0.2088,2.46774 0.5062,13.30839 -1.679,1.91907 l -0.9409,-2.20418 c 0.2866,0.87787 0.433,7.29202 -0.332,7.85419 -0.9177,-0.0881 -1.8676,-6.80857 -1.9582,-7.70612 0.5543,1.09389 0.2953,6.76948 -0.6498,6.97107 -0.754,-0.18912 -1.7174,-5.86192 -1.8856,-6.82489 l -0.1601,2.51833 c -0.5808,2.7494 -0.8744,5.71257 -1.0246,-0.24795 z"
       id="path13075-8-1"
       inkscape:connector-curvature="0"
       sodipodi:nodetypes="ccccccccccccc" />
    <path
       sodipodi:type="arc"
       style="fill:#000000;fill-opacity:0;stroke:#000000;stroke-width:1;stroke-linejoin:miter;stroke-miterlimit:4;stroke-opacity:1;stroke-dasharray:none;stroke-dashoffset:0"
       id="path6592-76-8-4-8"
       sodipodi:cx="728.92859"
       sodipodi:cy="883.92859"
       sodipodi:rx="6.0714288"
       sodipodi:ry="6.4285712"
       d="m 735.00002,883.92859 c 0,3.5504 -2.71827,6.42857 -6.07143,6.42857 -3.35316,0 -6.07143,-2.87817 -6.07143,-6.42857 0,-3.5504 2.71827,-6.42857 6.07143,-6.42857 3.35316,0 6.07143,2.87817 6.07143,6.42857 z"
       transform="matrix(0.11324311,0,0,0.0961506,933.7182,445.87828)" />
    <path
       sodipodi:type="arc"
       style="fill:#000000;fill-opacity:0;stroke:#000000;stroke-width:1;stroke-linejoin:miter;stroke-miterlimit:4;stroke-opacity:1;stroke-dasharray:none;stroke-dashoffset:0"
       id="path6592-9-99-4-6-7"
       sodipodi:cx="728.92859"
       sodipodi:cy="883.92859"
       sodipodi:rx="6.0714288"
       sodipodi:ry="6.4285712"
       d="m 735.00002,883.92859 c 0,3.5504 -2.71827,6.42857 -6.07143,6.42857 -3.35316,0 -6.07143,-2.87817 -6.07143,-6.42857 0,-3.5504 2.71827,-6.42857 6.07143,-6.42857 3.35316,0 6.07143,2.87817 6.07143,6.42857 z"
       transform="matrix(0.1004118,0,0,0.09167232,944.0528,449.87225)" />
    <path
       sodipodi:type="arc"
       style="fill:#000000;fill-opacity:0;stroke:#000000;stroke-width:1;stroke-linejoin:miter;stroke-miterlimit:4;stroke-opacity:1;stroke-dasharray:none;stroke-dashoffset:0"
       id="path6592-1-55-5-23-1"
       sodipodi:cx="728.92859"
       sodipodi:cy="883.92859"
       sodipodi:rx="6.0714288"
       sodipodi:ry="6.4285712"
       d="m 735.00002,883.92859 c 0,3.5504 -2.71827,6.42857 -6.07143,6.42857 -3.35316,0 -6.07143,-2.87817 -6.07143,-6.42857 0,-3.5504 2.71827,-6.42857 6.07143,-6.42857 3.35316,0 6.07143,2.87817 6.07143,6.42857 z"
       transform="matrix(0.11324311,0,0,0.0961506,935.6582,445.97922)" />
    <path
       sodipodi:type="arc"
       style="fill:#000000;fill-opacity:0;stroke:#000000;stroke-width:1;stroke-linejoin:miter;stroke-miterlimit:4;stroke-opacity:1;stroke-dasharray:none;stroke-dashoffset:0"
       id="path6592-9-0-53-0-3-8"
       sodipodi:cx="728.92859"
       sodipodi:cy="883.92859"
       sodipodi:rx="6.0714288"
       sodipodi:ry="6.4285712"
       d="m 735.00002,883.92859 c 0,3.5504 -2.71827,6.42857 -6.07143,6.42857 -3.35316,0 -6.07143,-2.87817 -6.07143,-6.42857 0,-3.5504 2.71827,-6.42857 6.07143,-6.42857 3.35316,0 6.07143,2.87817 6.07143,6.42857 z"
       transform="matrix(0.1004118,0,0,0.09167232,945.9928,449.97319)" />
    <path
       sodipodi:type="arc"
       style="fill:#000000;fill-opacity:0;stroke:#000000;stroke-width:1;stroke-linejoin:miter;stroke-miterlimit:4;stroke-opacity:1;stroke-dasharray:none;stroke-dashoffset:0"
       id="path6592-3-87-3-8-1"
       sodipodi:cx="728.92859"
       sodipodi:cy="883.92859"
       sodipodi:rx="6.0714288"
       sodipodi:ry="6.4285712"
       d="m 735.00002,883.92859 c 0,3.5504 -2.71827,6.42857 -6.07143,6.42857 -3.35316,0 -6.07143,-2.87817 -6.07143,-6.42857 0,-3.5504 2.71827,-6.42857 6.07143,-6.42857 3.35316,0 6.07143,2.87817 6.07143,6.42857 z"
       transform="matrix(0.11324311,0,0,0.0961506,937.3416,445.86322)" />
    <path
       style="fill:#502d16;stroke:#502d16;stroke-width:0.27424544px;stroke-linecap:butt;stroke-linejoin:miter;stroke-opacity:1"
       d="m 1010.8356,530.99581 4.6268,-25.55665 -0.3106,-30.1191 c 0,0 -0.6211,15.38392 -0.6211,14.92055 0,-0.46337 -6.7285,-6.1165 -6.7285,-6.1165 3.7606,-5.27302 4.4732,-9.30567 7.0391,-12.97438 l 7.039,-5.7458 c 0.4468,1.33744 0.2331,3.52868 2.7949,2.8729 2.5618,-0.65578 4.9057,-2.09795 5.2793,-4.07767 l 4.1406,1.29744 6.3144,4.17034 9.0059,13.15974 -9.0059,4.72638 -3.416,-6.85789 2.795,23.90994 c 1.4203,9.1472 2.3253,17.94087 2.7697,27.0881 l -15.3419,-0.26157 z"
       id="path6546-0"
       inkscape:connector-curvature="0"
       sodipodi:nodetypes="cccsccczcccccccccc" />
    <path
       sodipodi:type="arc"
       style="fill:#000000;fill-opacity:0;stroke:#000000;stroke-width:1;stroke-linejoin:miter;stroke-miterlimit:4;stroke-opacity:1;stroke-dasharray:none;stroke-dashoffset:0"
       id="path6592-9-1-93-1-8-9"
       sodipodi:cx="728.92859"
       sodipodi:cy="883.92859"
       sodipodi:rx="6.0714288"
       sodipodi:ry="6.4285712"
       d="m 735.00002,883.92859 c 0,3.5504 -2.71827,6.42857 -6.07143,6.42857 -3.35316,0 -6.07143,-2.87817 -6.07143,-6.42857 0,-3.5504 2.71827,-6.42857 6.07143,-6.42857 3.35316,0 6.07143,2.87817 6.07143,6.42857 z"
       transform="matrix(0.1004118,0,0,0.09167232,947.6762,449.85719)" />
    <path
       sodipodi:type="arc"
       style="fill:#000000;fill-opacity:0;stroke:#000000;stroke-width:1;stroke-linejoin:miter;stroke-miterlimit:4;stroke-opacity:1;stroke-dasharray:none;stroke-dashoffset:0"
       id="path6592-1-0-95-4-3-7"
       sodipodi:cx="728.92859"
       sodipodi:cy="883.92859"
       sodipodi:rx="6.0714288"
       sodipodi:ry="6.4285712"
       d="m 735.00002,883.92859 c 0,3.5504 -2.71827,6.42857 -6.07143,6.42857 -3.35316,0 -6.07143,-2.87817 -6.07143,-6.42857 0,-3.5504 2.71827,-6.42857 6.07143,-6.42857 3.35316,0 6.07143,2.87817 6.07143,6.42857 z"
       transform="matrix(0.11324311,0,0,0.0961506,939.2816,445.96416)" />
    <path
       sodipodi:type="arc"
       style="fill:#000000;fill-opacity:0;stroke:#000000;stroke-width:1;stroke-linejoin:miter;stroke-miterlimit:4;stroke-opacity:1;stroke-dasharray:none;stroke-dashoffset:0"
       id="path6592-9-0-7-4-1-7-4"
       sodipodi:cx="728.92859"
       sodipodi:cy="883.92859"
       sodipodi:rx="6.0714288"
       sodipodi:ry="6.4285712"
       d="m 735.00002,883.92859 c 0,3.5504 -2.71827,6.42857 -6.07143,6.42857 -3.35316,0 -6.07143,-2.87817 -6.07143,-6.42857 0,-3.5504 2.71827,-6.42857 6.07143,-6.42857 3.35316,0 6.07143,2.87817 6.07143,6.42857 z"
       transform="matrix(0.1004118,0,0,0.09167232,949.6162,449.95813)" />
    <path
       sodipodi:type="arc"
       style="fill:#000000;fill-opacity:0;stroke:#000000;stroke-width:1;stroke-linejoin:miter;stroke-miterlimit:4;stroke-opacity:1;stroke-dasharray:none;stroke-dashoffset:0"
       id="path6592-5-33-4-3-9"
       sodipodi:cx="728.92859"
       sodipodi:cy="883.92859"
       sodipodi:rx="6.0714288"
       sodipodi:ry="6.4285712"
       d="m 735.00002,883.92859 c 0,3.5504 -2.71827,6.42857 -6.07143,6.42857 -3.35316,0 -6.07143,-2.87817 -6.07143,-6.42857 0,-3.5504 2.71827,-6.42857 6.07143,-6.42857 3.35316,0 6.07143,2.87817 6.07143,6.42857 z"
       transform="matrix(0.11324311,0,0,0.0961506,941.0929,445.9779)" />
    <path
       sodipodi:type="arc"
       style="fill:#000000;fill-opacity:0;stroke:#000000;stroke-width:1;stroke-linejoin:miter;stroke-miterlimit:4;stroke-opacity:1;stroke-dasharray:none;stroke-dashoffset:0"
       id="path6592-9-9-0-4-1-5"
       sodipodi:cx="728.92859"
       sodipodi:cy="883.92859"
       sodipodi:rx="6.0714288"
       sodipodi:ry="6.4285712"
       d="m 735.00002,883.92859 c 0,3.5504 -2.71827,6.42857 -6.07143,6.42857 -3.35316,0 -6.07143,-2.87817 -6.07143,-6.42857 0,-3.5504 2.71827,-6.42857 6.07143,-6.42857 3.35316,0 6.07143,2.87817 6.07143,6.42857 z"
       transform="matrix(0.1004118,0,0,0.09167232,951.4275,449.97187)" />
    <path
       sodipodi:type="arc"
       style="fill:#000000;fill-opacity:0;stroke:#000000;stroke-width:1;stroke-linejoin:miter;stroke-miterlimit:4;stroke-opacity:1;stroke-dasharray:none;stroke-dashoffset:0"
       id="path6592-1-8-6-2-8-1"
       sodipodi:cx="728.92859"
       sodipodi:cy="883.92859"
       sodipodi:rx="6.0714288"
       sodipodi:ry="6.4285712"
       d="m 735.00002,883.92859 c 0,3.5504 -2.71827,6.42857 -6.07143,6.42857 -3.35316,0 -6.07143,-2.87817 -6.07143,-6.42857 0,-3.5504 2.71827,-6.42857 6.07143,-6.42857 3.35316,0 6.07143,2.87817 6.07143,6.42857 z"
       transform="matrix(0.11324311,0,0,0.0961506,943.0329,446.07884)" />
    <path
       sodipodi:type="arc"
       style="fill:#000000;fill-opacity:0;stroke:#000000;stroke-width:1;stroke-linejoin:miter;stroke-miterlimit:4;stroke-opacity:1;stroke-dasharray:none;stroke-dashoffset:0"
       id="path6592-9-0-1-82-7-2-2"
       sodipodi:cx="728.92859"
       sodipodi:cy="883.92859"
       sodipodi:rx="6.0714288"
       sodipodi:ry="6.4285712"
       d="m 735.00002,883.92859 c 0,3.5504 -2.71827,6.42857 -6.07143,6.42857 -3.35316,0 -6.07143,-2.87817 -6.07143,-6.42857 0,-3.5504 2.71827,-6.42857 6.07143,-6.42857 3.35316,0 6.07143,2.87817 6.07143,6.42857 z"
       transform="matrix(0.1004118,0,0,0.09167232,953.3675,450.07281)" />
    <path
       sodipodi:type="arc"
       style="fill:#000000;fill-opacity:0;stroke:#000000;stroke-width:1;stroke-linejoin:miter;stroke-miterlimit:4;stroke-opacity:1;stroke-dasharray:none;stroke-dashoffset:0"
       id="path6592-15-8-8-0-6"
       sodipodi:cx="728.92859"
       sodipodi:cy="883.92859"
       sodipodi:rx="6.0714288"
       sodipodi:ry="6.4285712"
       d="m 735.00002,883.92859 c 0,3.5504 -2.71827,6.42857 -6.07143,6.42857 -3.35316,0 -6.07143,-2.87817 -6.07143,-6.42857 0,-3.5504 2.71827,-6.42857 6.07143,-6.42857 3.35316,0 6.07143,2.87817 6.07143,6.42857 z"
       transform="matrix(0.11324311,0,0,0.0961506,944.9508,446.12278)" />
    <path
       sodipodi:type="arc"
       style="fill:#000000;fill-opacity:0;stroke:#000000;stroke-width:1;stroke-linejoin:miter;stroke-miterlimit:4;stroke-opacity:1;stroke-dasharray:none;stroke-dashoffset:0"
       id="path6592-9-3-1-1-1-7"
       sodipodi:cx="728.92859"
       sodipodi:cy="883.92859"
       sodipodi:rx="6.0714288"
       sodipodi:ry="6.4285712"
       d="m 735.00002,883.92859 c 0,3.5504 -2.71827,6.42857 -6.07143,6.42857 -3.35316,0 -6.07143,-2.87817 -6.07143,-6.42857 0,-3.5504 2.71827,-6.42857 6.07143,-6.42857 3.35316,0 6.07143,2.87817 6.07143,6.42857 z"
       transform="matrix(0.1004118,0,0,0.09167232,955.2854,450.11675)" />
    <path
       sodipodi:type="arc"
       style="fill:#000000;fill-opacity:0;stroke:#000000;stroke-width:1;stroke-linejoin:miter;stroke-miterlimit:4;stroke-opacity:1;stroke-dasharray:none;stroke-dashoffset:0"
       id="path6592-1-00-07-6-2-9"
       sodipodi:cx="728.92859"
       sodipodi:cy="883.92859"
       sodipodi:rx="6.0714288"
       sodipodi:ry="6.4285712"
       d="m 735.00002,883.92859 c 0,3.5504 -2.71827,6.42857 -6.07143,6.42857 -3.35316,0 -6.07143,-2.87817 -6.07143,-6.42857 0,-3.5504 2.71827,-6.42857 6.07143,-6.42857 3.35316,0 6.07143,2.87817 6.07143,6.42857 z"
       transform="matrix(0.11324311,0,0,0.0961506,946.8908,446.22372)" />
    <path
       sodipodi:type="arc"
       style="fill:#000000;fill-opacity:0;stroke:#000000;stroke-width:1;stroke-linejoin:miter;stroke-miterlimit:4;stroke-opacity:1;stroke-dasharray:none;stroke-dashoffset:0"
       id="path6592-9-0-4-1-2-2-1"
       sodipodi:cx="728.92859"
       sodipodi:cy="883.92859"
       sodipodi:rx="6.0714288"
       sodipodi:ry="6.4285712"
       d="m 735.00002,883.92859 c 0,3.5504 -2.71827,6.42857 -6.07143,6.42857 -3.35316,0 -6.07143,-2.87817 -6.07143,-6.42857 0,-3.5504 2.71827,-6.42857 6.07143,-6.42857 3.35316,0 6.07143,2.87817 6.07143,6.42857 z"
       transform="matrix(0.1004118,0,0,0.09167232,957.2254,450.21769)" />
    <path
       sodipodi:type="arc"
       style="fill:#000000;fill-opacity:0;stroke:#000000;stroke-width:1;stroke-linejoin:miter;stroke-miterlimit:4;stroke-opacity:1;stroke-dasharray:none;stroke-dashoffset:0"
       id="path6592-37-2-2-57-8"
       sodipodi:cx="728.92859"
       sodipodi:cy="883.92859"
       sodipodi:rx="6.0714288"
       sodipodi:ry="6.4285712"
       d="m 735.00002,883.92859 c 0,3.5504 -2.71827,6.42857 -6.07143,6.42857 -3.35316,0 -6.07143,-2.87817 -6.07143,-6.42857 0,-3.5504 2.71827,-6.42857 6.07143,-6.42857 3.35316,0 6.07143,2.87817 6.07143,6.42857 z"
       transform="matrix(0.11324311,0,0,0.0961506,948.6773,446.16912)" />
    <path
       sodipodi:type="arc"
       style="fill:#000000;fill-opacity:0;stroke:#000000;stroke-width:1;stroke-linejoin:miter;stroke-miterlimit:4;stroke-opacity:1;stroke-dasharray:none;stroke-dashoffset:0"
       id="path6592-9-8-46-6-21-6"
       sodipodi:cx="728.92859"
       sodipodi:cy="883.92859"
       sodipodi:rx="6.0714288"
       sodipodi:ry="6.4285712"
       d="m 735.00002,883.92859 c 0,3.5504 -2.71827,6.42857 -6.07143,6.42857 -3.35316,0 -6.07143,-2.87817 -6.07143,-6.42857 0,-3.5504 2.71827,-6.42857 6.07143,-6.42857 3.35316,0 6.07143,2.87817 6.07143,6.42857 z"
       transform="matrix(0.1004118,0,0,0.09167232,959.0119,450.16309)" />
    <path
       sodipodi:type="arc"
       style="fill:#000000;fill-opacity:0;stroke:#000000;stroke-width:1;stroke-linejoin:miter;stroke-miterlimit:4;stroke-opacity:1;stroke-dasharray:none;stroke-dashoffset:0"
       id="path6592-1-9-8-9-0-6"
       sodipodi:cx="728.92859"
       sodipodi:cy="883.92859"
       sodipodi:rx="6.0714288"
       sodipodi:ry="6.4285712"
       d="m 735.00002,883.92859 c 0,3.5504 -2.71827,6.42857 -6.07143,6.42857 -3.35316,0 -6.07143,-2.87817 -6.07143,-6.42857 0,-3.5504 2.71827,-6.42857 6.07143,-6.42857 3.35316,0 6.07143,2.87817 6.07143,6.42857 z"
       transform="matrix(0.11324311,0,0,0.0961506,950.6173,446.27005)" />
    <path
       sodipodi:type="arc"
       style="fill:#000000;fill-opacity:0;stroke:#000000;stroke-width:1;stroke-linejoin:miter;stroke-miterlimit:4;stroke-opacity:1;stroke-dasharray:none;stroke-dashoffset:0"
       id="path6592-9-0-2-0-1-93-1"
       sodipodi:cx="728.92859"
       sodipodi:cy="883.92859"
       sodipodi:rx="6.0714288"
       sodipodi:ry="6.4285712"
       d="m 735.00002,883.92859 c 0,3.5504 -2.71827,6.42857 -6.07143,6.42857 -3.35316,0 -6.07143,-2.87817 -6.07143,-6.42857 0,-3.5504 2.71827,-6.42857 6.07143,-6.42857 3.35316,0 6.07143,2.87817 6.07143,6.42857 z"
       transform="matrix(0.1004118,0,0,0.09167232,960.952,450.26403)" />
    <path
       sodipodi:type="arc"
       style="fill:#000000;fill-opacity:0;stroke:#000000;stroke-width:1;stroke-linejoin:miter;stroke-miterlimit:4;stroke-opacity:1;stroke-dasharray:none;stroke-dashoffset:0"
       id="path6592-7-5-2-4-5"
       sodipodi:cx="728.92859"
       sodipodi:cy="883.92859"
       sodipodi:rx="6.0714288"
       sodipodi:ry="6.4285712"
       d="m 735.00002,883.92859 c 0,3.5504 -2.71827,6.42857 -6.07143,6.42857 -3.35316,0 -6.07143,-2.87817 -6.07143,-6.42857 0,-3.5504 2.71827,-6.42857 6.07143,-6.42857 3.35316,0 6.07143,2.87817 6.07143,6.42857 z"
       transform="matrix(0.11324311,0,0,0.0961506,952.3004,446.30813)" />
    <path
       sodipodi:type="arc"
       style="fill:#000000;fill-opacity:0;stroke:#000000;stroke-width:1;stroke-linejoin:miter;stroke-miterlimit:4;stroke-opacity:1;stroke-dasharray:none;stroke-dashoffset:0"
       id="path6592-36-5-9-4-5"
       sodipodi:cx="728.92859"
       sodipodi:cy="883.92859"
       sodipodi:rx="6.0714288"
       sodipodi:ry="6.4285712"
       d="m 735.00002,883.92859 c 0,3.5504 -2.71827,6.42857 -6.07143,6.42857 -3.35316,0 -6.07143,-2.87817 -6.07143,-6.42857 0,-3.5504 2.71827,-6.42857 6.07143,-6.42857 3.35316,0 6.07143,2.87817 6.07143,6.42857 z"
       transform="matrix(0.11324311,0,0,0.0961506,929.9928,445.79842)" />
    <path
       sodipodi:type="arc"
       style="fill:#000000;fill-opacity:0;stroke:#000000;stroke-width:1;stroke-linejoin:miter;stroke-miterlimit:4;stroke-opacity:1;stroke-dasharray:none;stroke-dashoffset:0"
       id="path6592-9-96-15-3-6-7"
       sodipodi:cx="728.92859"
       sodipodi:cy="883.92859"
       sodipodi:rx="6.0714288"
       sodipodi:ry="6.4285712"
       d="m 735.00002,883.92859 c 0,3.5504 -2.71827,6.42857 -6.07143,6.42857 -3.35316,0 -6.07143,-2.87817 -6.07143,-6.42857 0,-3.5504 2.71827,-6.42857 6.07143,-6.42857 3.35316,0 6.07143,2.87817 6.07143,6.42857 z"
       transform="matrix(0.1004118,0,0,0.09167232,940.3274,449.79239)" />
    <path
       sodipodi:type="arc"
       style="fill:#000000;fill-opacity:0;stroke:#000000;stroke-width:1;stroke-linejoin:miter;stroke-miterlimit:4;stroke-opacity:1;stroke-dasharray:none;stroke-dashoffset:0"
       id="path6592-1-90-59-5-3-7"
       sodipodi:cx="728.92859"
       sodipodi:cy="883.92859"
       sodipodi:rx="6.0714288"
       sodipodi:ry="6.4285712"
       d="m 735.00002,883.92859 c 0,3.5504 -2.71827,6.42857 -6.07143,6.42857 -3.35316,0 -6.07143,-2.87817 -6.07143,-6.42857 0,-3.5504 2.71827,-6.42857 6.07143,-6.42857 3.35316,0 6.07143,2.87817 6.07143,6.42857 z"
       transform="matrix(0.11324311,0,0,0.0961506,931.9329,445.89936)" />
    <path
       sodipodi:type="arc"
       style="fill:#000000;fill-opacity:0;stroke:#000000;stroke-width:1;stroke-linejoin:miter;stroke-miterlimit:4;stroke-opacity:1;stroke-dasharray:none;stroke-dashoffset:0"
       id="path6592-9-0-9-48-4-43-7"
       sodipodi:cx="728.92859"
       sodipodi:cy="883.92859"
       sodipodi:rx="6.0714288"
       sodipodi:ry="6.4285712"
       d="m 735.00002,883.92859 c 0,3.5504 -2.71827,6.42857 -6.07143,6.42857 -3.35316,0 -6.07143,-2.87817 -6.07143,-6.42857 0,-3.5504 2.71827,-6.42857 6.07143,-6.42857 3.35316,0 6.07143,2.87817 6.07143,6.42857 z"
       transform="matrix(0.1004118,0,0,0.09167232,942.2675,449.89333)" />
    <path
       sodipodi:type="arc"
       style="fill:#000000;fill-opacity:0;stroke:#000000;stroke-width:1;stroke-linejoin:miter;stroke-miterlimit:4;stroke-opacity:1;stroke-dasharray:none;stroke-dashoffset:0"
       id="path6592-9-99-4-7-5"
       sodipodi:cx="728.92859"
       sodipodi:cy="883.92859"
       sodipodi:rx="6.0714288"
       sodipodi:ry="6.4285712"
       d="m 735.00002,883.92859 c 0,3.5504 -2.71827,6.42857 -6.07143,6.42857 -3.35316,0 -6.07143,-2.87817 -6.07143,-6.42857 0,-3.5504 2.71827,-6.42857 6.07143,-6.42857 3.35316,0 6.07143,2.87817 6.07143,6.42857 z"
       transform="matrix(0.1004118,0,0,0.09167232,962.4983,450.06885)" />
    <path
       sodipodi:type="arc"
       style="fill:#000000;fill-opacity:0;stroke:#000000;stroke-width:1;stroke-linejoin:miter;stroke-miterlimit:4;stroke-opacity:1;stroke-dasharray:none;stroke-dashoffset:0"
       id="path6592-1-55-5-26-7"
       sodipodi:cx="728.92859"
       sodipodi:cy="883.92859"
       sodipodi:rx="6.0714288"
       sodipodi:ry="6.4285712"
       d="m 735.00002,883.92859 c 0,3.5504 -2.71827,6.42857 -6.07143,6.42857 -3.35316,0 -6.07143,-2.87817 -6.07143,-6.42857 0,-3.5504 2.71827,-6.42857 6.07143,-6.42857 3.35316,0 6.07143,2.87817 6.07143,6.42857 z"
       transform="matrix(0.11324311,0,0,0.0961506,954.1037,446.17581)" />
    <path
       sodipodi:type="arc"
       style="fill:#000000;fill-opacity:0;stroke:#000000;stroke-width:1;stroke-linejoin:miter;stroke-miterlimit:4;stroke-opacity:1;stroke-dasharray:none;stroke-dashoffset:0"
       id="path6592-9-0-53-0-5-7"
       sodipodi:cx="728.92859"
       sodipodi:cy="883.92859"
       sodipodi:rx="6.0714288"
       sodipodi:ry="6.4285712"
       d="m 735.00002,883.92859 c 0,3.5504 -2.71827,6.42857 -6.07143,6.42857 -3.35316,0 -6.07143,-2.87817 -6.07143,-6.42857 0,-3.5504 2.71827,-6.42857 6.07143,-6.42857 3.35316,0 6.07143,2.87817 6.07143,6.42857 z"
       transform="matrix(0.1004118,0,0,0.09167232,964.4383,450.16978)" />
    <path
       sodipodi:type="arc"
       style="fill:#000000;fill-opacity:0;stroke:#000000;stroke-width:1;stroke-linejoin:miter;stroke-miterlimit:4;stroke-opacity:1;stroke-dasharray:none;stroke-dashoffset:0"
       id="path6592-3-87-3-2-9"
       sodipodi:cx="728.92859"
       sodipodi:cy="883.92859"
       sodipodi:rx="6.0714288"
       sodipodi:ry="6.4285712"
       d="m 735.00002,883.92859 c 0,3.5504 -2.71827,6.42857 -6.07143,6.42857 -3.35316,0 -6.07143,-2.87817 -6.07143,-6.42857 0,-3.5504 2.71827,-6.42857 6.07143,-6.42857 3.35316,0 6.07143,2.87817 6.07143,6.42857 z"
       transform="matrix(0.11324311,0,0,0.0961506,955.787,446.05981)" />
    <path
       sodipodi:type="arc"
       style="fill:#000000;fill-opacity:0;stroke:#000000;stroke-width:1;stroke-linejoin:miter;stroke-miterlimit:4;stroke-opacity:1;stroke-dasharray:none;stroke-dashoffset:0"
       id="path6592-9-1-93-1-0-7"
       sodipodi:cx="728.92859"
       sodipodi:cy="883.92859"
       sodipodi:rx="6.0714288"
       sodipodi:ry="6.4285712"
       d="m 735.00002,883.92859 c 0,3.5504 -2.71827,6.42857 -6.07143,6.42857 -3.35316,0 -6.07143,-2.87817 -6.07143,-6.42857 0,-3.5504 2.71827,-6.42857 6.07143,-6.42857 3.35316,0 6.07143,2.87817 6.07143,6.42857 z"
       transform="matrix(0.1004118,0,0,0.09167232,966.1217,450.05378)" />
    <path
       sodipodi:type="arc"
       style="fill:#000000;fill-opacity:0;stroke:#000000;stroke-width:1;stroke-linejoin:miter;stroke-miterlimit:4;stroke-opacity:1;stroke-dasharray:none;stroke-dashoffset:0"
       id="path6592-1-0-95-4-1-7"
       sodipodi:cx="728.92859"
       sodipodi:cy="883.92859"
       sodipodi:rx="6.0714288"
       sodipodi:ry="6.4285712"
       d="m 735.00002,883.92859 c 0,3.5504 -2.71827,6.42857 -6.07143,6.42857 -3.35316,0 -6.07143,-2.87817 -6.07143,-6.42857 0,-3.5504 2.71827,-6.42857 6.07143,-6.42857 3.35316,0 6.07143,2.87817 6.07143,6.42857 z"
       transform="matrix(0.11324311,0,0,0.0961506,957.7271,446.16075)" />
    <path
       sodipodi:type="arc"
       style="fill:#000000;fill-opacity:0;stroke:#000000;stroke-width:1;stroke-linejoin:miter;stroke-miterlimit:4;stroke-opacity:1;stroke-dasharray:none;stroke-dashoffset:0"
       id="path6592-9-0-7-4-1-30-3"
       sodipodi:cx="728.92859"
       sodipodi:cy="883.92859"
       sodipodi:rx="6.0714288"
       sodipodi:ry="6.4285712"
       d="m 735.00002,883.92859 c 0,3.5504 -2.71827,6.42857 -6.07143,6.42857 -3.35316,0 -6.07143,-2.87817 -6.07143,-6.42857 0,-3.5504 2.71827,-6.42857 6.07143,-6.42857 3.35316,0 6.07143,2.87817 6.07143,6.42857 z"
       transform="matrix(0.1004118,0,0,0.09167232,968.0617,450.15472)" />
    <path
       style="fill:#502d16;stroke:#502d16;stroke-width:0.27424544px;stroke-linecap:butt;stroke-linejoin:miter;stroke-opacity:1"
       d="m 1022.0356,465.07957 c 0.4387,1.62975 0.4749,3.66519 3.0537,2.82656 3.676,-1.51435 4.1835,-2.56023 4.8135,-3.98499 l 1.9667,0.78774 c -0.9121,1.99249 -3.8843,6.33542 -7.5048,5.97748 -3.6205,-0.35795 -3.5529,-3.9918 -3.7783,-4.77272 z"
       id="path12903-0"
       inkscape:connector-curvature="0"
       sodipodi:nodetypes="cccczcc" />
    <path
       style="fill:#502d16;stroke:#502d16;stroke-width:0.27424544px;stroke-linecap:butt;stroke-linejoin:miter;stroke-opacity:1"
       d="m 1008.4234,482.78033 6.3144,5.46778 0,1.9925 -7.2979,-6.20917 z"
       id="path12905-0"
       inkscape:connector-curvature="0"
       sodipodi:nodetypes="ccccc" />
    <path
       style="fill:#ac9d93;fill-opacity:1;stroke:#ac9d93;stroke-width:0.27424544px;stroke-linecap:butt;stroke-linejoin:miter;stroke-opacity:1"
       d="m 1011.443,531.04237 -1.9031,15.59627 c 0.091,0.821 0.031,1.65707 1.3175,2.35911 -1.1475,0.69758 -0.8935,3.90466 -1.1711,6.15987 0.1743,1.17955 -0.3323,2.35908 0.5856,3.53864 l -0.732,12.58185 c 0.081,1.69459 -0.7911,3.01584 1.3175,5.50459 l 5.7093,-0.3932 c 1.0922,-1.73351 1.7766,-3.36272 1.9031,-4.84925 0.5856,-2.58857 1.1712,-5.01216 1.7567,-5.89774 0.626,-1.19977 0.6833,-6.72743 1.0248,-10.09171 l 0.2928,-8.78109 c 2.7856,-4.65204 3.488,-10.05585 4.5381,-15.33414 l 2.0495,4.32501 0.732,8.78109 c -0.1561,2.39209 0.6818,4.38869 1.7567,6.29094 -0.2261,1.14655 0.196,2.09303 0.766,3.71467 -0.9695,2.0532 0.8468,3.8173 1.4299,5.06642 0.3707,5.8823 -0.6738,14.43935 1.112,17.6469 0.1856,1.69305 1.8861,2.48192 2.8406,3.71605 l 5.7418,0.0768 c 1.5795,-1.07648 1.413,-4.42917 1.3619,-6.50011 -0.197,-5.44543 -0.1741,-8.97884 -0.8088,-11.40096 l -0.4392,-9.6985 c 0.6998,-0.98806 0.7776,-2.1816 0.5161,-3.41554 l -0.9553,-12.96711 0.2928,-6.42199 -31.328,-0.39318 z"
       id="path12927-4"
       inkscape:connector-curvature="0"
       sodipodi:nodetypes="ccccccccccccccccccccccccccccc" />
    <path
       style="fill:#502d16;stroke:#502d16;stroke-width:0.27424544px;stroke-linecap:butt;stroke-linejoin:miter;stroke-opacity:1"
       d="m 1010.957,529.99965 31.2098,0.46339 0.3623,2.31684 -31.8826,-0.92674 z"
       id="path12925-5"
       inkscape:connector-curvature="0"
       sodipodi:nodetypes="ccccc" />
    <path
       style="fill:#c6962e;fill-opacity:1;stroke:#c6962e;stroke-width:0.27424544px;stroke-linecap:butt;stroke-linejoin:miter;stroke-opacity:1"
       d="m 1010.6489,576.24224 6.1074,0.32436 -0.3623,1.11209 c -0.55,0.61968 -1.5724,0.81645 -2.9502,0.69506 -1.8358,-0.0931 -1.8692,-0.64719 -2.7949,-0.97308 z"
       id="path12929-9"
       inkscape:connector-curvature="0"
       sodipodi:nodetypes="cccccc" />
    <path
       style="fill:#c6962e;fill-opacity:1;stroke:#c6962e;stroke-width:0.27424544px;stroke-linecap:butt;stroke-linejoin:miter;stroke-opacity:1"
       d="m 1036.5795,580.58091 6.1074,0.32436 -0.3623,1.11208 c -0.5501,0.61968 -1.5724,0.81645 -2.9502,0.69507 -1.8358,-0.0931 -1.8692,-0.64719 -2.7949,-0.97309 z"
       id="path12929-0-9"
       inkscape:connector-curvature="0"
       sodipodi:nodetypes="cccccc" />
    <path
       style="fill:#502d16;stroke:#502d16;stroke-width:0.27424544px;stroke-linecap:butt;stroke-linejoin:miter;stroke-opacity:1"
       d="m 1017.0059,582.02513 c -0.08,0.86944 0.5929,0.74486 -0.4392,2.62122 -0.4481,0.0933 -0.8309,0.3003 -2.4155,1.83486 -0.4176,-0.46666 -0.8522,-0.26385 -1.2809,-0.29488 -2.166,0.94396 -0.4304,0.46209 -4.0624,2.26078 0.3449,0.16675 -0.3121,1.07034 -1.4639,1.44169 -1.5127,-0.27295 -3.0254,-0.009 -4.5382,-1.1468 -1.1955,-0.31803 -2.3911,-0.24231 -3.5866,-2.19524 -0.061,-0.81547 0.2615,-1.71314 0.7686,-2.35911 2.5307,-0.81508 3.0513,-0.40581 3.184,-0.52424 l 6.5877,-3.66973 c -0.7564,0.0505 -2.1572,0.0319 -2.0495,-0.0983 1.0185,-0.72399 1.4526,-1.42282 3.2938,-2.12974 l 2.1227,0.8519 c 1.2403,-0.25723 3.1748,-0.10019 3.3671,-0.98296 0.034,-0.32416 2.0816,3.29731 0.8783,3.99738 z"
       id="path12949-9"
       inkscape:connector-curvature="0"
       sodipodi:nodetypes="ccccccccccccccccc" />
    <path
       style="fill:#502d16;stroke:#502d16;stroke-width:0.27424544px;stroke-linecap:butt;stroke-linejoin:miter;stroke-opacity:1"
       d="m 1035.5246,588.05394 c 0.4913,1.20374 -0.151,0.3685 2.5619,3.6697 0.8473,0.88011 0.3547,2.06581 0.2561,3.53866 0.2171,1.16647 3.1405,1.55033 5.5263,1.70379 3.7048,-0.66423 3.5076,-1.52809 3.9526,-2.3591 -0.8783,-2.29867 -1.7567,-2.64062 -2.635,-2.88335 0.9971,-0.77768 -1.9634,-3.87599 -1.6103,-5.89774 0.7953,-0.0521 1.7438,-0.0515 1.3175,-0.52424 l -1.0248,-1.57273 1.5372,0.45872 c -0.251,-0.76279 -1.7321,-1.64795 -2.7815,-2.49017 -0.1046,0.39865 -0.2626,1.19377 -2.7082,1.04848 -2.3242,0.008 -2.4022,-0.70168 -3.5135,-1.08126 -0.5787,0.60196 -1.8441,0.335 -1.9031,1.86764 0.3912,0.59433 0.3481,1.36143 1.5371,1.63825 0,0.33035 -0.1003,0.54749 0.366,1.37614 -0.2928,0.45343 -0.5855,-0.27098 -0.8783,1.50721 z"
       id="path12951-9"
       inkscape:connector-curvature="0"
       sodipodi:nodetypes="ccccccccccccccccc" />
    <path
       style="fill:#cccccc;stroke:#cccccc;stroke-width:0.27424544px;stroke-linecap:butt;stroke-linejoin:miter;stroke-opacity:1"
       d="m 1018.4698,451.75043 13.3218,-0.26212 c -2.4633,-8.57498 -4.7234,-8.05552 -6.5877,-8.25685 -3.1305,0.15696 -6.3223,1.52186 -6.7341,8.51897 z"
       id="path12981-7"
       inkscape:connector-curvature="0"
       sodipodi:nodetypes="cccc" />
    <path
       style="fill:#f2f2f2;stroke:#f2f2f2;stroke-width:0.27424544px;stroke-linecap:butt;stroke-linejoin:miter;stroke-opacity:1"
       d="m 1019.0554,448.21178 c -7.6252,-0.90363 -5.1914,-4.05867 -6.2949,-6.42199 2.2243,1.79771 1.1686,4.79116 7.4039,4.23234 z"
       id="path12983-3"
       inkscape:connector-curvature="0"
       sodipodi:nodetypes="cccc" />
    <path
       style="fill:#e6e6e6;stroke:#e6e6e6;stroke-width:0.27424544px;stroke-linecap:butt;stroke-linejoin:miter;stroke-opacity:1"
       d="m 1031.0363,448.18028 c 7.6253,-0.90364 5.1915,-4.05868 6.2949,-6.422 -2.2242,1.79772 -1.1686,4.79117 -7.4038,4.23234 z"
       id="path12983-1-9"
       inkscape:connector-curvature="0"
       sodipodi:nodetypes="cccc" />
    <path
       style="fill:#ffb380;stroke:#ffb380;stroke-width:0.27424544px;stroke-linecap:butt;stroke-linejoin:miter;stroke-opacity:1"
       d="m 1018.543,451.88149 c 0.1972,2.9791 -0.3308,6.08804 0.732,8.91215 1.3554,1.33745 2.4734,2.91768 4.465,3.60418 l 2.9278,0.0655 c 1.8524,-0.97836 2.9394,-2.29934 3.6232,-3.80077 l 1.3176,-8.94491 z"
       id="path13003-7"
       inkscape:connector-curvature="0"
       sodipodi:nodetypes="ccccccc" />
    <path
       style="fill:#ffccaa;stroke:#ffccaa;stroke-width:0.27424544px;stroke-linecap:butt;stroke-linejoin:miter;stroke-opacity:1"
       d="m 1018.6162,455.12525 c -1.3354,-0.30001 -1.4436,0.49873 -1.8665,1.01573 0.2196,0.84823 0.6637,1.58486 1.7567,1.99868 z"
       id="path13005-7"
       inkscape:connector-curvature="0"
       sodipodi:nodetypes="cccc" />
    <path
       style="fill:#ffccaa;stroke:#ffccaa;stroke-width:0.27424544px;stroke-linecap:butt;stroke-linejoin:miter;stroke-opacity:1"
       d="m 1030.8949,454.96141 c 1.3355,-0.30001 1.4436,0.49873 1.8665,1.01572 -0.2196,0.84824 -0.6636,1.58487 -1.7567,1.99868 z"
       id="path13005-1-1"
       inkscape:connector-curvature="0"
       sodipodi:nodetypes="cccc" />
    <path
       style="fill:#cccccc;stroke:#cccccc;stroke-width:0.27424544px;stroke-linecap:butt;stroke-linejoin:miter;stroke-opacity:1"
       d="m 1018.7626,459.12262 4.0258,1.80208 5.014,0.0328 2.9278,-2.68676 -0.2196,4.9148 -3.4064,24.27898 -4.1722,0.16383 -4.6452,-26.4415 z"
       id="path13025-5"
       inkscape:connector-curvature="0"
       sodipodi:nodetypes="ccccccccc" />
    <path
       sodipodi:type="arc"
       style="fill:#000000;fill-opacity:1;stroke:#000000;stroke-width:1;stroke-linejoin:miter;stroke-miterlimit:4;stroke-opacity:1;stroke-dasharray:none;stroke-dashoffset:0"
       id="path13027-3"
       sodipodi:cx="737.66388"
       sodipodi:cy="805.55072"
       sodipodi:rx="6.3134532"
       sodipodi:ry="4.7982244"
       d="m 743.97733,805.55072 c 0,2.64999 -2.82663,4.79822 -6.31345,4.79822 -3.48682,0 -6.31345,-2.14823 -6.31345,-4.79822 0,-2.64999 2.82663,-4.79822 6.31345,-4.79822 3.48682,0 6.31345,2.14823 6.31345,4.79822 z"
       transform="matrix(0.30340556,0,0,0.20717852,797.95234,287.93755)" />
    <path
       transform="matrix(0.29249443,0,0,0.20115397,812.29597,292.95447)"
       sodipodi:type="arc"
       style="fill:#000000;fill-opacity:1;stroke:#000000;stroke-width:1;stroke-linejoin:miter;stroke-miterlimit:4;stroke-opacity:1;stroke-dasharray:none;stroke-dashoffset:0"
       id="path13027-7-6"
       sodipodi:cx="737.66388"
       sodipodi:cy="805.55072"
       sodipodi:rx="6.3134532"
       sodipodi:ry="4.7982244"
       d="m 743.97733,805.55072 c 0,2.64999 -2.82663,4.79822 -6.31345,4.79822 -3.48682,0 -6.31345,-2.14823 -6.31345,-4.79822 0,-2.64999 2.82663,-4.79822 6.31345,-4.79822 3.48682,0 6.31345,2.14823 6.31345,4.79822 z" />
    <path
       style="fill:#502d16;stroke:#502d16;stroke-width:0.27424544px;stroke-linecap:butt;stroke-linejoin:miter;stroke-opacity:1"
       d="m 1019.7508,453.42146 3.1108,0.0328 1.2078,0.49148 0.5855,-0.6553 -1.4273,-0.55701 -3.8794,0.0328 z"
       id="path13047-6"
       inkscape:connector-curvature="0" />
    <path
       style="fill:#502d16;stroke:#502d16;stroke-width:0.27424544px;stroke-linecap:butt;stroke-linejoin:miter;stroke-opacity:1"
       d="m 1030.2727,453.43784 -3.1108,0.0328 -1.2077,0.49148 -0.5856,-0.65531 1.4273,-0.55701 3.8794,0.0328 z"
       id="path13047-0-4"
       inkscape:connector-curvature="0" />
    <path
       style="fill:#502d16;stroke:#502d16;stroke-width:0.12593693px;stroke-linecap:butt;stroke-linejoin:miter;stroke-opacity:1"
       d="m 997.8354,509.31081 2.3886,-1.50352 -17.4973,-19.6247 -3.1545,1.63329 z"
       id="path13067-8"
       inkscape:connector-curvature="0" />
    <rect
       style="opacity:0.99599998;fill:#ac9393;fill-opacity:1;stroke:#ac9393;stroke-width:0.94121361;stroke-linejoin:miter;stroke-miterlimit:4;stroke-opacity:1;stroke-dasharray:none;stroke-dashoffset:0"
       id="rect25592"
       width="13.74366"
       height="11.350578"
       x="395.67572"
       y="958.57031"
       transform="matrix(0.82322563,-0.56771433,0.67156134,0.74094896,0,0)" />
    <path
       style="fill:#ffb380;fill-opacity:1;stroke:#ffb380;stroke-width:0.27424544px;stroke-linecap:butt;stroke-linejoin:miter;stroke-opacity:1"
       d="m 996.6573,509.81049 -2.1959,1.44166 c -3.0507,-0.1047 -4.1533,-2.75848 -4.6845,-6.15987 l 1.9763,-2.42463 c 1.8376,-1.65305 3.5733,-3.12965 2.5435,0.18021 l -1.1894,2.0806 c 0.5269,-0.7584 2.8779,-1.85971 3.7879,-1.58911 0.4837,0.7848 -1.6265,2.71163 -2.2874,3.32566 0.5375,-1.10228 2.5444,-1.43453 3.2756,-0.80273 0.3044,0.71536 -0.9624,2.0205 -1.6286,2.73589 l 2.1044,-1.39252 c 1.85,-0.69831 0.7623,0.35684 0.4208,0.96656 z"
       id="path13075-8"
       inkscape:connector-curvature="0"
       sodipodi:nodetypes="ccccccccccccc" />
    <path
       style="fill:#502d16;stroke:#502d16;stroke-width:0.27424544px;stroke-linecap:butt;stroke-linejoin:miter;stroke-opacity:1"
       d="m 1048.5404,481.50704 -8.9394,4.78028 0.625,1.555 9.2354,-4.89667 z"
       id="path12905-0-1"
       inkscape:connector-curvature="0"
       sodipodi:nodetypes="ccccc" />
    <path
       style="fill:#502d16;stroke:#502d16;stroke-width:1px;stroke-linecap:butt;stroke-linejoin:miter;stroke-opacity:1"
       d="m 1096,635.11218 -3.5,-73.25 19.5,1.5 7.5,69.5 z"
       id="path26397"
       inkscape:connector-curvature="0"
       sodipodi:nodetypes="ccccc" />
    <path
       style="fill:#28170b;stroke:#28170b;stroke-width:0.74858803px;stroke-linecap:butt;stroke-linejoin:miter;stroke-opacity:1"
       d="m 1082.2452,515.74072 111.6232,-7.83881 3.3602,14.90344 -115.7155,8.46993 z"
       id="path26397-13-2-7-0-9"
       inkscape:connector-curvature="0"
       sodipodi:nodetypes="ccccc" />
    <path
       style="fill:#28170b;stroke:#28170b;stroke-width:1.06054902px;stroke-linecap:butt;stroke-linejoin:miter;stroke-opacity:1"
       d="m 1231.3149,548.65506 -40.6887,-41.30427 -7.635,7.67872 47.4319,59.22331 z"
       id="path26397-13-2-7-0-2"
       inkscape:connector-curvature="0"
       sodipodi:nodetypes="ccccc" />
    <path
       style="fill:#502d16;stroke:#502d16;stroke-width:0.67931271px;stroke-linecap:butt;stroke-linejoin:miter;stroke-opacity:1"
       d="m 1186.3257,562.14752 -1.986,-59.57068 11.0649,1.21987 4.2557,56.521 z"
       id="path26397-14"
       inkscape:connector-curvature="0"
       sodipodi:nodetypes="ccccc" />
    <path
       style="fill:#502d16;stroke:#502d16;stroke-width:1px;stroke-linecap:butt;stroke-linejoin:miter;stroke-opacity:1"
       d="m 1220.25,618.73718 -2.5,-68.25 18.5,-3.5 7.5,69.5 z"
       id="path26397-1"
       inkscape:connector-curvature="0"
       sodipodi:nodetypes="ccccc" />
    <path
       style="fill:#502d16;stroke:#502d16;stroke-width:1px;stroke-linecap:butt;stroke-linejoin:miter;stroke-opacity:1"
       d="m 955,650.98718 -3.5,-73.25 19.5,1.5 7.5,69.5 z"
       id="path26397-2"
       inkscape:connector-curvature="0"
       sodipodi:nodetypes="ccccc" />
    <path
       style="fill:#502d16;stroke:#502d16;stroke-width:1px;stroke-linecap:butt;stroke-linejoin:miter;stroke-opacity:1"
       d="m 812,647.98718 -3.5,-73.25 19.5,1.5 7.5,69.5 z"
       id="path26397-25"
       inkscape:connector-curvature="0"
       sodipodi:nodetypes="ccccc" />
    <path
       style="fill:#28170b;stroke:#28170b;stroke-width:1.06054902px;stroke-linecap:butt;stroke-linejoin:miter;stroke-opacity:1"
       d="m 738.67464,560.85265 40.6887,-41.30428 7.635,7.67872 -47.4319,59.22332 z"
       id="path26397-13-2-7-0-2-9"
       inkscape:connector-curvature="0"
       sodipodi:nodetypes="ccccc" />
    <path
       style="fill:#502d16;stroke:#502d16;stroke-width:1px;stroke-linecap:butt;stroke-linejoin:miter;stroke-opacity:1"
       d="m 734,617.98718 -3.5,-73.25 19.5,1.5 7.5,69.5 z"
       id="path26397-13"
       inkscape:connector-curvature="0"
       sodipodi:nodetypes="ccccc" />
    <path
       style="fill:#502d16;stroke:#502d16;stroke-width:0.67931271px;stroke-linecap:butt;stroke-linejoin:miter;stroke-opacity:1"
       d="m 1083.3257,561.14752 -1.986,-59.57068 11.0649,1.21987 4.2557,56.521 z"
       id="path26397-14-2"
       inkscape:connector-curvature="0"
       sodipodi:nodetypes="ccccc" />
    <path
       style="fill:#502d16;stroke:#502d16;stroke-width:0.67931271px;stroke-linecap:butt;stroke-linejoin:miter;stroke-opacity:1"
       d="m 779.3257,578.14752 -1.986,-59.57068 11.0649,1.21987 4.2557,56.521 z"
       id="path26397-14-5"
       inkscape:connector-curvature="0"
       sodipodi:nodetypes="ccccc" />
    <path
       style="fill:#28170b;stroke:#28170b;stroke-width:1px;stroke-linecap:butt;stroke-linejoin:miter;stroke-opacity:1"
       d="m 735.29774,556.40726 83.1584,26.44449 -8.47748,17.62476 -76.52035,-22.06303 z"
       id="path26397-13-2"
       inkscape:connector-curvature="0"
       sodipodi:nodetypes="ccccc" />
    <path
       style="fill:#28170b;stroke:#28170b;stroke-width:1px;stroke-linecap:butt;stroke-linejoin:miter;stroke-opacity:1"
       d="m 820.37969,578.81108 143.66149,6.09548 -4.05162,19.13333 -140.47013,-1.63701 z"
       id="path26397-13-2-7"
       inkscape:connector-curvature="0"
       sodipodi:nodetypes="ccccc" />
    <path
       style="fill:#28170b;stroke:#28170b;stroke-width:1px;stroke-linecap:butt;stroke-linejoin:miter;stroke-opacity:1"
       d="m 964.73264,582.45784 131.16146,-11.90452 3.9484,22.63333 -135.97012,12.86299 z"
       id="path26397-13-2-7-0"
       inkscape:connector-curvature="0"
       sodipodi:nodetypes="ccccc" />
  </g>
</svg>
