<?xml version="1.0" encoding="UTF-8" standalone="no"?>
<!-- Created with Inkscape (http://www.inkscape.org/) -->

<svg
   xmlns:dc="http://purl.org/dc/elements/1.1/"
   xmlns:cc="http://creativecommons.org/ns#"
   xmlns:rdf="http://www.w3.org/1999/02/22-rdf-syntax-ns#"
   xmlns:svg="http://www.w3.org/2000/svg"
   xmlns="http://www.w3.org/2000/svg"
   xmlns:sodipodi="http://sodipodi.sourceforge.net/DTD/sodipodi-0.dtd"
   xmlns:inkscape="http://www.inkscape.org/namespaces/inkscape"
   width="465.90546"
   height="718.12579"
   id="svg2"
   version="1.1"
   inkscape:version="0.48.4 r9939"
   sodipodi:docname="thor.svg"
   inkscape:export-filename="/home/jvhoof/Dropbox/Games for design and play/PROJECT FOLDER/Assets/Backgrounds/thor.png"
   inkscape:export-xdpi="90"
   inkscape:export-ydpi="90">
  <defs
     id="defs4" />
  <sodipodi:namedview
     id="base"
     pagecolor="#ffffff"
     bordercolor="#666666"
     borderopacity="1.0"
     inkscape:pageopacity="0.0"
     inkscape:pageshadow="2"
     inkscape:zoom="0.98994949"
     inkscape:cx="179.23212"
     inkscape:cy="238.73469"
     inkscape:document-units="px"
     inkscape:current-layer="layer1"
     showgrid="false"
     fit-margin-top="0"
     fit-margin-left="0"
     fit-margin-right="0"
     fit-margin-bottom="0"
     inkscape:window-width="1600"
     inkscape:window-height="843"
     inkscape:window-x="0"
     inkscape:window-y="0"
     inkscape:window-maximized="1" />
  <metadata
     id="metadata7">
    <rdf:RDF>
      <cc:Work
         rdf:about="">
        <dc:format>image/svg+xml</dc:format>
        <dc:type
           rdf:resource="http://purl.org/dc/dcmitype/StillImage" />
        <dc:title></dc:title>
      </cc:Work>
    </rdf:RDF>
  </metadata>
  <g
     inkscape:label="Layer 1"
     inkscape:groupmode="layer"
     id="layer1"
     transform="translate(-25.670068,-9.15625)">
    <path
       sodipodi:type="arc"
       style="opacity:0.2;fill:#000000;fill-opacity:1;stroke:#000000;stroke-width:2;stroke-linejoin:miter;stroke-miterlimit:4;stroke-opacity:1;stroke-dasharray:none;stroke-dashoffset:0"
       id="path5644"
       sodipodi:cx="228.57143"
       sodipodi:cy="908.79077"
       sodipodi:rx="200"
       sodipodi:ry="40.714287"
       d="m 428.57143,908.79077 c 0,22.48588 -89.54305,40.71429 -200,40.71429 -110.45695,0 -200.000004,-18.22841 -200.000004,-40.71429 0,-22.48588 89.543054,-40.71429 200.000004,-40.71429 110.45695,0 200,18.22841 200,40.71429 z"
       transform="matrix(0.95605388,0,0,0.95605388,80.890643,-181.44718)" />
    <path
       style="fill:#ffcc00;stroke:#ffcc00;stroke-width:0.81513405px;stroke-linecap:butt;stroke-linejoin:miter;stroke-opacity:1"
       d="m 242.08701,79.849076 -10.70432,-2.470225 c -11.80113,-20.684998 -4.7531,-40.513214 7.41068,-60.108913 l -12.35114,0.823406 c -10.69427,16.897863 -6.39661,41.973149 -5.76387,65.049373 l 22.23206,5.763865 z"
       id="path9273"
       inkscape:connector-curvature="0"
       sodipodi:nodetypes="ccccccc" />
    <path
       style="fill:#aaccff;stroke:#aaccff;stroke-width:0.81513405px;stroke-linecap:butt;stroke-linejoin:miter;stroke-opacity:1"
       d="m 224.34907,21.865384 c -16.17016,2.377315 -17.68257,-6.762167 -23.87179,-12.2270122 -36.97826,14.6893822 -0.40098,40.6950152 0,61.1350542 4.80195,11.101998 12.87996,6.915676 19.79612,8.151339 -0.24556,-19.748939 -3.608,-40.914648 4.07567,-57.059381 z"
       id="path9275"
       inkscape:connector-curvature="0"
       sodipodi:nodetypes="ccccc" />
    <path
       style="opacity:0.2;fill:#000000;stroke:#000000;stroke-width:0.81513405px;stroke-linecap:butt;stroke-linejoin:miter;stroke-opacity:1"
       d="m 189.59386,15.831077 -2.79061,3.528764 32.88791,16.479266 1.19248,-4.477034 z"
       id="path9277"
       inkscape:connector-curvature="0"
       sodipodi:nodetypes="ccccc" />
    <path
       style="opacity:0.2;fill:#000000;stroke:#000000;stroke-width:0.81513405px;stroke-linecap:butt;stroke-linejoin:miter;stroke-opacity:1"
       d="m 184.60842,24.660456 0.19425,5.381417 34.22595,16.685126 0.472,-5.094587 z"
       id="path9277-6"
       inkscape:connector-curvature="0"
       sodipodi:nodetypes="ccccc" />
    <path
       style="opacity:0.2;fill:#000000;stroke:#000000;stroke-width:0.81513405px;stroke-linecap:butt;stroke-linejoin:miter;stroke-opacity:1"
       d="m 186.14651,36.908682 2.25278,5.175556 30.52061,15.655879 0.0603,-4.991667 z"
       id="path9277-6-5"
       inkscape:connector-curvature="0"
       sodipodi:nodetypes="ccccc" />
    <path
       style="opacity:0.2;fill:#000000;stroke:#000000;stroke-width:0.81513405px;stroke-linecap:butt;stroke-linejoin:miter;stroke-opacity:1"
       d="m 194.7923,53.685655 2.25277,5.175566 22.49236,11.435894 0.0604,-4.991667 z"
       id="path9277-6-5-9"
       inkscape:connector-curvature="0"
       sodipodi:nodetypes="ccccc" />
    <g
       id="g9366"
       transform="matrix(-0.81513406,0,0,0.81513406,599.31073,-152.98498)">
      <path
         sodipodi:nodetypes="ccccccc"
         inkscape:connector-curvature="0"
         id="path9273-1"
         d="m 362.29694,287.01617 -13.13199,-3.03045 c -14.47753,-25.3762 -5.83106,-49.7013 9.09138,-73.74114 l -15.15229,1.01015 c -13.11965,20.73016 -7.84731,51.49232 -7.07107,79.80205 l 27.27412,7.07107 z"
         style="fill:#ffcc00;stroke:#ffcc00;stroke-width:1px;stroke-linecap:butt;stroke-linejoin:miter;stroke-opacity:1" />
      <path
         sodipodi:nodetypes="ccccc"
         inkscape:connector-curvature="0"
         id="path9275-7"
         d="m 340.53617,215.88223 c -19.83743,2.91648 -21.69283,-8.29577 -29.28572,-15 -45.36465,18.02082 -0.49192,49.92432 0,75 5.89099,13.61985 15.80103,8.4841 24.28572,10 -0.30126,-24.22784 -4.42627,-50.19376 5,-70 z"
         style="fill:#aaccff;stroke:#aaccff;stroke-width:1px;stroke-linecap:butt;stroke-linejoin:miter;stroke-opacity:1" />
      <path
         sodipodi:nodetypes="ccccc"
         inkscape:connector-curvature="0"
         id="path9277-7"
         d="m 297.89875,208.4794 -3.4235,4.32905 40.34663,20.21664 1.46293,-5.49239 z"
         style="opacity:0.2;fill:#000000;stroke:#000000;stroke-width:1px;stroke-linecap:butt;stroke-linejoin:miter;stroke-opacity:1" />
      <path
         sodipodi:nodetypes="ccccc"
         inkscape:connector-curvature="0"
         id="path9277-6-1"
         d="m 291.78265,219.31121 0.23831,6.60188 41.98812,20.46918 0.57905,-6.25 z"
         style="opacity:0.2;fill:#000000;stroke:#000000;stroke-width:1px;stroke-linecap:butt;stroke-linejoin:miter;stroke-opacity:1" />
      <path
         sodipodi:nodetypes="ccccc"
         inkscape:connector-curvature="0"
         id="path9277-6-5-0"
         d="m 293.66957,234.33723 2.76369,6.34934 37.44244,19.2065 0.074,-6.12374 z"
         style="opacity:0.2;fill:#000000;stroke:#000000;stroke-width:1px;stroke-linecap:butt;stroke-linejoin:miter;stroke-opacity:1" />
      <path
         sodipodi:nodetypes="ccccc"
         inkscape:connector-curvature="0"
         id="path9277-6-5-9-4"
         d="m 304.27615,254.91909 2.76369,6.34934 27.59345,14.02947 0.074,-6.12374 z"
         style="opacity:0.2;fill:#000000;stroke:#000000;stroke-width:1px;stroke-linecap:butt;stroke-linejoin:miter;stroke-opacity:1" />
    </g>
    <path
       style="fill:#241f1c;stroke:#241f1c;stroke-width:0.81513405px;stroke-linecap:butt;stroke-linejoin:miter;stroke-opacity:1"
       d="m 239.61679,165.4837 c -24.63028,4.05617 -46.81405,10.39576 -55.16845,29.64275 l -18.93843,62.57914 -43.64072,308.77865 341.71505,8.2341 C 459.10032,458.41745 401.84382,331.67111 364.77507,197.59668 351.77246,183.64529 354.21006,164.97605 304.66615,162.19006 z"
       id="path3514"
       inkscape:connector-curvature="0"
       sodipodi:nodetypes="cccccccc" />
    <path
       style="fill:#f4b97f;fill-opacity:1;stroke:#f4b97f;stroke-width:0.81513405px;stroke-linecap:butt;stroke-linejoin:miter;stroke-opacity:1"
       d="m 217.36221,250.68516 -12.22702,33.1876 c -3.78655,18.13086 -21.25849,24.53138 -40.17446,29.69416 -24.3394,-2.05216 -35.97652,-5.6921 -52.40147,-8.73357 l 17.46716,-30.85866 c 10.64202,3.23464 21.54457,5.42727 34.35207,0 4.74476,-9.11881 4.70537,-16.87075 16.30269,-27.94744 3.30419,-19.82368 4.21569,-41.3701 26.20073,-47.74357 l 36.68104,-5.24015 65.50184,2.03784 c 19.15624,-1.73979 48.6811,14.67151 54.4393,27.07409 2.65284,9.19173 1.43644,27.45499 13.97373,44.25014 18.59306,27.37548 16.70882,35.93759 20.9606,48.3258 l 9.31581,48.90805 -22.7073,1.74672 c -1.54297,-14.07077 -4.79395,-28.14154 -12.51813,-42.21231 -15.34114,-8.84542 -19.25379,-25.31842 -18.92275,-39.88334 -13.16143,-9.27511 -17.48662,-24.44105 -26.20074,-36.68103 0,0 2.50979,14.97749 2.33751,20.84 -0.17228,5.86252 -3.21087,24.57461 -3.21087,24.57461 l 3.78455,19.21387 0.58224,21.54283 -108.29639,4.07567 1.16448,-43.6679 c -2.78498,-3.90598 -3.35726,0.96533 -3.96365,-12.05648 -0.60641,-13.02179 -2.90146,-20.41567 -2.44097,-30.44693 z"
       id="path3000"
       inkscape:connector-curvature="0"
       sodipodi:nodetypes="cccccccccccccccccczccccczc" />
    <path
       style="fill:#f4b97f;fill-opacity:1;stroke:#f4b97f;stroke-width:0.81513405px;stroke-linecap:butt;stroke-linejoin:miter;stroke-opacity:1"
       d="m 219.44324,398.92035 c -5.17284,28.18586 0.66559,62.97849 6.17558,97.57407 l -1.23512,91.39847 c 0,0 46.87829,6.21482 44.87583,3.29364 -1.79468,-2.61808 -4.8713,-77.33136 -6.58727,-79.04733 2.40802,-4.95141 5.2011,-6.43726 6.58727,-20.58524 l -3.70533,-13.99797 2.88193,-89.33996 z"
       id="path3516"
       inkscape:connector-curvature="0"
       sodipodi:nodetypes="cccsccccc" />
    <path
       style="fill:#f4b97f;fill-opacity:1;stroke:#f4b97f;stroke-width:0.81513405px;stroke-linecap:butt;stroke-linejoin:miter;stroke-opacity:1"
       d="m 297.25547,398.92035 41.9939,-21.40864 c 6.07143,32.25021 15.52822,64.50042 6.99898,96.75064 4.48939,23.06313 3.30175,39.31382 2.47022,55.99187 l 2.05853,81.51756 -40.34707,-6.99898 -2.47024,-115.68907 z"
       id="path3518"
       inkscape:connector-curvature="0"
       sodipodi:nodetypes="cccccccc" />
    <path
       style="fill:#ac9d93;fill-opacity:1;stroke:#ac9d93;stroke-width:1.08617079px;stroke-linecap:butt;stroke-linejoin:miter;stroke-opacity:1"
       d="m 230.43249,454.80547 c -23.31828,-25.18271 -5.02493,41.18017 -7.53738,61.77026 0.36041,3.25163 0.12277,6.56296 5.21805,9.34344 -4.54475,2.76282 -3.53877,15.46471 -4.63823,24.39665 0.69033,4.6717 -1.31609,9.34333 2.31932,14.01505 l -2.89914,49.83141 c 0.3208,6.71158 -3.13321,11.94448 5.21805,21.80138 l 22.61214,-1.55731 c 4.32574,-6.8657 7.03637,-13.31831 7.53738,-19.20584 2.31931,-10.25223 4.63863,-19.85105 6.95755,-23.35845 8.25018,-4.75179 6.11897,-26.64453 4.05881,-39.96902 l 1.15965,-34.77819 c 11.03259,-18.42478 13.8145,-39.82699 17.9735,-60.73208 l 8.11721,17.12953 2.89915,34.77822 c -0.61825,9.47405 2.70032,17.38174 6.95754,24.91575 -0.89549,4.54099 0.77627,8.28961 3.0338,14.71225 -3.83978,8.13185 -4.79751,15.11872 -2.48811,20.06595 -14.21213,23.29732 4.63134,57.18819 12.55551,69.89194 0.73509,6.70546 7.47005,9.82984 11.25043,14.71772 l 22.74085,0.30416 c 6.25573,-4.26348 5.59629,-17.54208 5.39392,-25.74419 -0.78024,-21.56706 -0.68955,-35.56141 -3.20333,-45.1544 l -1.73948,-38.41168 c 2.77161,-3.9133 3.07975,-8.64039 2.04405,-13.5275 l -3.78354,-51.35728 1.15966,-25.43478 -124.07702,-1.55723 z"
       id="path12927-4-0"
       inkscape:connector-curvature="0"
       sodipodi:nodetypes="ccccccccccccccccccccccccccccc" />
    <path
       style="fill:#6c5d53;stroke:#6c5d53;stroke-width:0.71761137px;stroke-linecap:butt;stroke-linejoin:miter;stroke-opacity:1"
       d="m 188.24615,449.56161 c -8.98771,22.80389 70.54317,12.63027 98.98252,13.6618 28.43935,1.03154 116.63823,18.6721 108.40974,-12.4314 L 370.52773,402.33253 C 347.26598,374.3264 331.97192,349.57976 332.79875,331.42804 l -114.34066,-6.08245 -15.6935,89.61616 z"
       id="path3520"
       inkscape:connector-curvature="0"
       sodipodi:nodetypes="czcccccc" />
    <path
       style="fill:#502d16;stroke:#502d16;stroke-width:0.81513405px;stroke-linecap:butt;stroke-linejoin:miter;stroke-opacity:1"
       d="m 339.66107,358.16157 c -29.74715,44.40825 -75.88808,41.46722 -125.56999,-4.52875 l 0,-27.58423 c 38.70933,-14.20338 82.40626,-24.51573 124.33488,2.05853 z"
       id="path3488"
       inkscape:connector-curvature="0"
       sodipodi:nodetypes="ccccc" />
    <path
       style="fill:#6c5353;stroke:#241c1c;stroke-width:0.81513405px;stroke-linecap:butt;stroke-linejoin:miter;stroke-opacity:1"
       d="m 290.05063,316.99109 c -46.54408,-0.80579 -42.80275,68.34146 0.61756,67.10789 43.42031,-1.23355 45.92652,-66.3021 -0.61756,-67.10789 z"
       id="path3490"
       inkscape:connector-curvature="0"
       sodipodi:nodetypes="zzz" />
    <path
       style="fill:#483737;stroke:#483737;stroke-width:0.81513405px;stroke-linecap:butt;stroke-linejoin:miter;stroke-opacity:1"
       d="m 276.46438,366.80737 26.96665,-26.34911 -10.70431,-12.14529 -12.9687,13.58626 23.87888,24.7023 4.32289,-4.73461 -4.73461,1.85266 -20.37938,-21.82035 9.0575,-7.61654 6.58728,6.38143 -23.46717,25.11399 z"
       id="path3492"
       inkscape:connector-curvature="0" />
    <path
       style="fill:#483737;stroke:#483737;stroke-width:0.81513405px;stroke-linecap:butt;stroke-linejoin:miter;stroke-opacity:1"
       d="m 265.14249,342.10509 6.99898,-5.76388 7.8224,7.61654 -2.88194,0.82342 -5.55801,-4.52876 -5.35217,3.70534 z"
       id="path3494"
       inkscape:connector-curvature="0" />
    <path
       style="fill:#483737;stroke:#483737;stroke-width:0.81513405px;stroke-linecap:butt;stroke-linejoin:miter;stroke-opacity:1"
       d="m 269.67124,340.45826 0.82341,18.32087 3.49949,-0.61756 -0.8234,-18.115 z"
       id="path3496"
       inkscape:connector-curvature="0" />
    <path
       style="fill:#483737;stroke:#483737;stroke-width:0.81513405px;stroke-linecap:butt;stroke-linejoin:miter;stroke-opacity:1"
       d="m 305.28372,357.54402 1.02926,-21.20281 8.02824,8.85166 -6.17558,5.55801 5.96973,5.55802 1.85267,-1.64682 1.64681,1.85268 -3.08778,2.26437 -7.41068,-6.99898 0.20585,6.38142 z"
       id="path3498"
       inkscape:connector-curvature="0" />
    <path
       style="fill:#6c5353;stroke:#6c5353;stroke-width:0.81513405px;stroke-linecap:butt;stroke-linejoin:miter;stroke-opacity:1"
       d="m 307.75394,341.48753 0,5.76386 3.70534,-2.88193 z"
       id="path3500"
       inkscape:connector-curvature="0" />
    <path
       style="fill:#502d16;stroke:#502d16;stroke-width:0.81513405px;stroke-linecap:butt;stroke-linejoin:miter;stroke-opacity:1"
       d="m 165.92161,273.35037 14.40967,35.40662 -15.64478,5.35216 -38.70026,-6.58727 10.29263,-34.99492 z"
       id="path3524"
       inkscape:connector-curvature="0" />
    <g
       id="g7941"
       transform="matrix(0.86264801,0.13673524,-0.13673524,0.86264801,43.968608,-154.86769)">
      <path
         inkscape:connector-curvature="0"
         id="path3512"
         d="m 109.10714,427.00504 -32.499997,26.60714 36.964287,8.03572 31.25,-29.64286 z"
         style="fill:#483e37;stroke:#483e37;stroke-width:1px;stroke-linecap:butt;stroke-linejoin:miter;stroke-opacity:1" />
      <path
         sodipodi:nodetypes="ccccc"
         inkscape:connector-curvature="0"
         id="path3506"
         d="M 185.71429,532.71932 C 160.36822,503.13045 137.74143,472.18194 120,438.79075 c -2.1916,-7.33115 -16.85375,-0.91272 -18.57143,14.28572 26.95764,25.6786 48.63499,56.10946 66.07143,90.35714 11.60604,0.11831 12.15703,-7.13341 18.21429,-10.71429 z"
         style="fill:#28170b;stroke:#28170b;stroke-width:1px;stroke-linecap:butt;stroke-linejoin:miter;stroke-opacity:1" />
      <path
         inkscape:connector-curvature="0"
         id="path3508"
         d="M 76.428572,452.71932 108.92857,426.6479 79.285714,382.00504 44.642857,411.29075 z"
         style="fill:#917c6f;stroke:#917c6f;stroke-width:1px;stroke-linecap:butt;stroke-linejoin:miter;stroke-opacity:1" />
      <path
         sodipodi:nodetypes="ccccc"
         inkscape:connector-curvature="0"
         id="path3510"
         d="m 110.01674,427.30638 34.91614,3.75 -31.61256,-45.08928 -33.091741,-4.10715 z"
         style="fill:#6c5d53;stroke:#6c5d53;stroke-width:1px;stroke-linecap:butt;stroke-linejoin:miter;stroke-opacity:1" />
    </g>
    <path
       sodipodi:nodetypes="ccccccccccccc"
       inkscape:connector-curvature="0"
       id="path13075-8-7-6"
       d="m 387.26,378.83043 c 3.94595,24.04274 -22.56492,29.44421 -6.11528,-10.23905 0.13854,-12.84373 10.75959,-12.70581 24.45518,-8.7607 l 9.98204,12.87394 c 7.04048,11.67863 11.77697,41.64535 -0.49103,10.53873 l -10.91202,-13.03161 c 3.11389,3.63677 15.73014,28.20409 14.72162,31.59774 -3.12635,0.63247 -16.66265,-20.26563 -19.20551,-24.21133 4.33597,6.39004 13.89294,27.08813 11.49602,27.97186 -2.86238,-0.006 -16.20129,-20.31311 -19.15422,-24.46711 l 5.82342,11.53582 c 15.76088,21.09045 2.82748,22.35479 -3.86667,0.0324 z"
       style="fill:#f4b97f;fill-opacity:1;stroke:#f4b97f;stroke-width:1.13391817px;stroke-linecap:butt;stroke-linejoin:miter;stroke-opacity:1" />
    <path
       style="fill:#502d16;stroke:#502d16;stroke-width:0.81513405px;stroke-linecap:butt;stroke-linejoin:miter;stroke-opacity:1"
       d="m 379.20458,338.6676 24.64423,-2.73809 4.97868,27.17252 -27.17253,4.11706 z"
       id="path3522"
       inkscape:connector-curvature="0"
       sodipodi:nodetypes="ccccc" />
    <path
       sodipodi:nodetypes="ccccccccccccc"
       inkscape:connector-curvature="0"
       id="path13075-8-7-5-8"
       d="m 107.92328,270.68834 c -29.220558,-6.09949 -13.199497,-17.00461 16.27154,-2.37407 13.63749,6.4461 4.27796,19.19562 -11.82627,33.79412 l -19.82752,4.58769 c -0.344378,-0.005 -11.237596,-12.2765 -3.584796,-6.32683 l 13.525096,-5.05062 c -6.596367,1.97975 -19.691187,1.70079 -22.451617,-1.17531 2.034049,-4.08187 11.996608,-6.70696 18.428497,-7.84664 -10.605392,2.10854 -27.96486,2.64945 -26.832597,-0.67508 2.489385,-3.4511 22.709804,-8.74708 29.720517,-10.27978 l -17.407428,1.38794 c -22.784116,7.16876 -12.703723,-9.08158 3.318959,-4.68198 z"
       style="fill:#f4b97f;fill-opacity:1;stroke:#f4b97f;stroke-width:1.48565841px;stroke-linecap:butt;stroke-linejoin:miter;stroke-opacity:1" />
    <path
       style="fill:#ffdd55;stroke:#ffdd55;stroke-width:0.81513405px;stroke-linecap:butt;stroke-linejoin:miter;stroke-opacity:1"
       d="m 245.38065,130.90048 12.35114,60.10891 -62.57914,13.99797 c 8.71767,-19.95934 19.18668,-80.42551 46.11096,-96.33894 l 69.98982,0 c 29.94783,26.83276 30.39318,84.77992 30.46617,98.80918 l -42.8173,-9.05752 -7.4107,-65.87277 z"
       id="path9374"
       inkscape:connector-curvature="0"
       sodipodi:nodetypes="ccccccccc" />
    <path
       style="fill:#f4b97f;fill-opacity:1;stroke:#f4b97f;stroke-width:0.81513405px;stroke-linecap:butt;stroke-linejoin:miter;stroke-opacity:1"
       d="m 236.46407,202.34222 13.5035,-44.81524 44.25013,1.16447 11.64478,43.08567 z"
       id="path9195"
       inkscape:connector-curvature="0"
       sodipodi:nodetypes="ccccc" />
    <path
       style="fill:#f4b97f;fill-opacity:1;stroke:#f4b97f;stroke-width:1.40503454px;stroke-linecap:butt;stroke-linejoin:miter;stroke-opacity:1"
       d="m 240.55602,113.4896 c 1.0103,15.26275 -1.69479,31.19071 3.75023,45.6594 6.94408,6.85212 12.67189,14.94808 22.87542,18.4652 l 14.99992,0.33558 c 9.49036,-5.01242 15.05936,-11.78016 18.56266,-19.47239 l 6.75042,-45.82723 z"
       id="path13003-7-8"
       inkscape:connector-curvature="0"
       sodipodi:nodetypes="ccccccc" />
    <path
       style="fill:#c6962e;fill-opacity:1;stroke:#c6962e;stroke-width:1.11855066px;stroke-linecap:butt;stroke-linejoin:miter;stroke-opacity:1"
       d="m 227.17868,630.6338 24.90993,1.32295 -1.4777,4.53583 c -2.24325,2.52746 -6.41326,3.33001 -12.03282,2.83491 -7.48758,-0.37972 -7.62381,-2.63967 -11.39941,-3.96886 z"
       id="path12929-9"
       inkscape:connector-curvature="0"
       sodipodi:nodetypes="cccccc" />
    <path
       style="fill:#c6962e;fill-opacity:1;stroke:#c6962e;stroke-width:1.11855066px;stroke-linecap:butt;stroke-linejoin:miter;stroke-opacity:1"
       d="m 332.94047,648.32971 24.90993,1.32295 -1.47769,4.53579 c -2.24367,2.52745 -6.41327,3.33001 -12.03282,2.83494 -7.48759,-0.37972 -7.62381,-2.63967 -11.39942,-3.9689 z"
       id="path12929-0-9"
       inkscape:connector-curvature="0"
       sodipodi:nodetypes="cccccc" />
    <path
       style="fill:#502d16;stroke:#502d16;stroke-width:1.11855066px;stroke-linecap:butt;stroke-linejoin:miter;stroke-opacity:1"
       d="m 253.10664,654.22018 c -0.32629,3.54613 2.41823,3.03802 -1.79135,10.69103 -1.82763,0.38054 -3.38894,1.22482 -9.85197,7.48375 -1.70325,-1.90335 -3.47582,-1.07615 -5.22434,-1.20272 -8.83434,3.85009 -1.75544,1.88471 -16.5691,9.22094 1.40673,0.68011 -1.27295,4.36553 -5.97073,5.88014 -6.16976,-1.11327 -12.33954,-0.0367 -18.50972,-4.6774 -4.87602,-1.29712 -9.75245,-0.98829 -14.62848,-8.95361 -0.24879,-3.32601 1.06657,-6.98729 3.13485,-9.62197 10.32183,-3.32443 12.44517,-1.65516 12.98642,-2.1382 l 26.86891,-14.96754 c -3.0851,0.20597 -8.79846,0.13012 -8.3592,-0.40092 4.15411,-2.95291 5.92465,-5.80319 13.43426,-8.68646 l 8.65774,3.47459 c 5.05876,-1.04914 12.9489,-0.40864 13.73322,-4.00914 0.13867,-1.32214 8.49012,13.44856 3.58228,16.30391 z"
       id="path12949-9"
       inkscape:connector-curvature="0"
       sodipodi:nodetypes="ccccccccccccccccc" />
    <path
       style="fill:#502d16;stroke:#502d16;stroke-width:1.11855066px;stroke-linecap:butt;stroke-linejoin:miter;stroke-opacity:1"
       d="m 328.6379,678.80957 c 2.00385,4.90963 -0.61587,1.50299 10.44909,14.96742 3.45584,3.58966 1.4467,8.42571 1.04455,14.43294 0.88547,4.75767 12.80899,6.32326 22.53982,6.9491 15.11059,-2.70904 14.30628,-6.23248 16.12127,-9.62188 -3.58227,-9.37546 -7.16495,-10.77016 -10.74724,-11.76016 4.06682,-3.17188 -8.00801,-15.8088 -6.56784,-24.05481 3.24375,-0.2125 7.11235,-0.21005 5.37362,-2.13819 l -4.17981,-6.41461 6.2697,1.87096 c -1.02374,-3.11115 -7.06463,-6.72141 -11.34476,-10.15653 -0.42662,1.62595 -1.07105,4.86897 -11.04579,4.27638 -9.4796,0.0326 -9.79773,-2.86191 -14.33033,-4.41008 -2.36031,2.45518 -7.52144,1.36634 -7.76207,7.61745 1.59557,2.42405 1.41977,5.5528 6.26928,6.68184 0,1.34738 -0.40908,2.23302 1.49279,5.61279 -1.19423,1.84938 -2.38805,-1.10523 -3.58228,6.14738 z"
       id="path12951-9"
       inkscape:connector-curvature="0"
       sodipodi:nodetypes="ccccccccccccccccc" />
    <path
       style="fill:#cccccc;stroke:#cccccc;stroke-width:1.6176579px;stroke-linecap:butt;stroke-linejoin:miter;stroke-opacity:1"
       d="M 235.73357,112.09815 314.31324,110.552 C 299.78328,59.971826 286.45191,63.035907 275.45519,61.848345 256.98968,62.774181 238.1626,70.825141 235.73357,112.09815 z"
       id="path12981-7-4"
       inkscape:connector-curvature="0"
       sodipodi:nodetypes="cccc" />
    <path
       sodipodi:type="arc"
       style="fill:#000000;fill-opacity:1;stroke:#000000;stroke-width:1;stroke-linejoin:miter;stroke-miterlimit:4;stroke-opacity:1;stroke-dasharray:none;stroke-dashoffset:0"
       id="path13027-3-9"
       sodipodi:cx="737.66388"
       sodipodi:cy="805.55072"
       sodipodi:rx="6.3134532"
       sodipodi:ry="4.7982244"
       d="m 743.97733,805.55072 c 0,2.64999 -2.82663,4.79822 -6.31345,4.79822 -3.48682,0 -6.31345,-2.14823 -6.31345,-4.79822 0,-2.64999 2.82663,-4.79822 6.31345,-4.79822 3.48682,0 6.31345,2.14823 6.31345,4.79822 z"
       transform="matrix(1.4300677,0,0,0.97651243,-796.08823,-656.91429)" />
    <path
       transform="matrix(1.3786394,0,0,0.94811638,-728.48112,-633.26762)"
       sodipodi:type="arc"
       style="fill:#000000;fill-opacity:1;stroke:#000000;stroke-width:1;stroke-linejoin:miter;stroke-miterlimit:4;stroke-opacity:1;stroke-dasharray:none;stroke-dashoffset:0"
       id="path13027-7-6-2"
       sodipodi:cx="737.66388"
       sodipodi:cy="805.55072"
       sodipodi:rx="6.3134532"
       sodipodi:ry="4.7982244"
       d="m 743.97733,805.55072 c 0,2.64999 -2.82663,4.79822 -6.31345,4.79822 -3.48682,0 -6.31345,-2.14823 -6.31345,-4.79822 0,-2.64999 2.82663,-4.79822 6.31345,-4.79822 3.48682,0 6.31345,2.14823 6.31345,4.79822 z" />
    <path
       style="fill:#502d16;stroke:#502d16;stroke-width:1.29262483px;stroke-linecap:butt;stroke-linejoin:miter;stroke-opacity:1"
       d="m 249.33358,123.07533 14.66241,0.1546 5.69283,2.31652 2.75969,-3.08866 -6.72742,-2.62541 -18.28511,0.15459 z"
       id="path13047-6-3"
       inkscape:connector-curvature="0" />
    <path
       style="fill:#502d16;stroke:#502d16;stroke-width:1.29262483px;stroke-linecap:butt;stroke-linejoin:miter;stroke-opacity:1"
       d="m 298.92736,123.15254 -14.66239,0.1546 -5.69235,2.31653 -2.76017,-3.08872 6.72741,-2.62542 18.28511,0.1546 z"
       id="path13047-0-4-8"
       inkscape:connector-curvature="0" />
    <path
       style="fill:#ffdd55;fill-opacity:1;stroke:#ffdd55;stroke-width:0.45606866px;stroke-linecap:butt;stroke-linejoin:miter;stroke-opacity:1"
       d="m 250.88131,161.63196 15.41577,1.30149 19.19983,0.0238 11.21126,-1.94044 -0.84091,3.54957 -13.04394,17.53472 -15.97638,0.11833 -17.78758,-19.09656 z"
       id="path13025-5-6"
       inkscape:connector-curvature="0"
       sodipodi:nodetypes="ccccccccc" />
    <path
       style="opacity:0.2;fill:#000000;stroke:#000000;stroke-width:0.81513405px;stroke-linecap:butt;stroke-linejoin:miter;stroke-opacity:1"
       d="m 180.74298,308.75699 c 22.27247,-11.00601 19.70467,-14.16771 22.23207,-18.93842 5.03904,-12.76285 10.46122,-25.38015 14.33904,-38.143 l 4.18768,-24.02445 c -16.41383,9.94176 -11.5279,23.47869 -39.93537,46.11096 -1.52091,7.7607 -8.34881,12.3372 -15.23308,16.87989 l -53.93334,12.35115 4.11705,3.29364 47.75776,9.0575 z"
       id="path9423"
       inkscape:connector-curvature="0"
       sodipodi:nodetypes="cccccccccc" />
    <path
       style="opacity:0.2;fill:#000000;stroke:#000000;stroke-width:0.81513405px;stroke-linecap:butt;stroke-linejoin:miter;stroke-opacity:1"
       d="m 327.72163,230.94476 c 12.06525,13.89516 22.71147,15.01898 36.23002,41.9939 8.60891,17.17882 18.32853,29.76664 23.05548,62.99085 1.57834,11.92161 -0.83398,22.10814 -5.55802,31.28958 l -2.16145,-28.71642 c -3.66987,-7.09189 -4.91481,-10.18765 -6.53581,-14.71845 -22.12865,-10.33008 -20.06695,-34.72045 -18.68111,-40.96464 -6.03211,0.71734 -15.9599,-18.04378 -25.114,-32.93639 z"
       id="path9425"
       inkscape:connector-curvature="0"
       sodipodi:nodetypes="ccccccccc" />
    <path
       style="fill:#000000;stroke:#000000;stroke-width:0.81513405px;stroke-linecap:butt;stroke-linejoin:miter;stroke-opacity:1"
       d="m 259.58447,154.16181 26.14326,0.20586 -2.88193,5.76386 -20.58524,-0.61756 z"
       id="path9445"
       inkscape:connector-curvature="0" />
    <path
       style="opacity:0.2;fill:#000000;stroke:#000000;stroke-width:0.81513405px;stroke-linecap:butt;stroke-linejoin:miter;stroke-opacity:1"
       d="m 220.2734,251.84963 c 18.14063,1.84762 36.34246,4.43327 51.81924,-0.58223 l 1.16447,-30.27641 1.37034,30.72343 c 16.8649,5.63927 32.95094,2.22701 49.28442,0.42633"
       id="path9447"
       inkscape:connector-curvature="0"
       sodipodi:nodetypes="ccccc" />
    <path
       style="opacity:0.2;fill:#000000;stroke:#000000;stroke-width:1px;stroke-linecap:butt;stroke-linejoin:miter;stroke-opacity:1"
       d="m 226.77925,187.35294 c 6.7093,3.73802 11.61454,7.79441 29.29442,9.59645 22.74159,1.28969 29.06454,-2.39816 39.90103,-5.49456 l 7.07106,1.95903 c -13.60364,3.95628 -25.1859,9.03556 -44.4467,9.84898 -33.37591,-6.32634 -24.55409,-10.34675 -34.64105,-15.47879 z"
       id="path9680"
       inkscape:connector-curvature="0"
       transform="translate(10.319273,9.1556365)"
       sodipodi:nodetypes="ccccccc" />
  </g>
</svg>
