<?xml version="1.0" encoding="UTF-8" standalone="no"?>
<!-- Created with Inkscape (http://www.inkscape.org/) -->

<svg
   xmlns:dc="http://purl.org/dc/elements/1.1/"
   xmlns:cc="http://creativecommons.org/ns#"
   xmlns:rdf="http://www.w3.org/1999/02/22-rdf-syntax-ns#"
   xmlns:svg="http://www.w3.org/2000/svg"
   xmlns="http://www.w3.org/2000/svg"
   xmlns:sodipodi="http://sodipodi.sourceforge.net/DTD/sodipodi-0.dtd"
   xmlns:inkscape="http://www.inkscape.org/namespaces/inkscape"
   width="120.71872"
   height="483.85229"
   id="svg3152"
   version="1.1"
   inkscape:version="0.48.4 r9939"
   sodipodi:docname="wife.svg"
   inkscape:export-filename="/home/jvhoof/Dropbox/Games for design and play/PROJECT FOLDER/Assets/Backgrounds/wife.png"
   inkscape:export-xdpi="90"
   inkscape:export-ydpi="90">
  <defs
     id="defs3154">
    <filter
       inkscape:collect="always"
       id="filter17521"
       x="-0.16952077"
       width="1.3390415"
       y="-0.1840511"
       height="1.3681022"
       color-interpolation-filters="sRGB">
      <feGaussianBlur
         inkscape:collect="always"
         stdDeviation="1.6945806"
         id="feGaussianBlur17523" />
    </filter>
    <filter
       color-interpolation-filters="sRGB"
       inkscape:collect="always"
       id="filter17521-1"
       x="-0.16952077"
       width="1.3390415"
       y="-0.1840511"
       height="1.3681022">
      <feGaussianBlur
         inkscape:collect="always"
         stdDeviation="1.6945806"
         id="feGaussianBlur17523-1" />
    </filter>
  </defs>
  <sodipodi:namedview
     id="base"
     pagecolor="#ffffff"
     bordercolor="#666666"
     borderopacity="1.0"
     inkscape:pageopacity="0.0"
     inkscape:pageshadow="2"
     inkscape:zoom="0.98994949"
     inkscape:cx="79.022994"
     inkscape:cy="312.56445"
     inkscape:document-units="px"
     inkscape:current-layer="layer1"
     showgrid="false"
     showguides="true"
     inkscape:guide-bbox="true"
     fit-margin-top="0"
     fit-margin-left="0"
     fit-margin-right="0"
     fit-margin-bottom="0"
     inkscape:window-width="1600"
     inkscape:window-height="843"
     inkscape:window-x="0"
     inkscape:window-y="0"
     inkscape:window-maximized="1" />
  <metadata
     id="metadata3157">
    <rdf:RDF>
      <cc:Work
         rdf:about="">
        <dc:format>image/svg+xml</dc:format>
        <dc:type
           rdf:resource="http://purl.org/dc/dcmitype/StillImage" />
        <dc:title></dc:title>
      </cc:Work>
    </rdf:RDF>
  </metadata>
  <g
     inkscape:label="Layer 1"
     inkscape:groupmode="layer"
     id="layer1"
     transform="translate(-368.86992,-263.20598)">
    <g
       id="g13095"
       style="opacity:0.6">
      <path
         sodipodi:nodetypes="cccccc"
         inkscape:connector-curvature="0"
         id="path17628-7-1-0"
         d="m 378.32402,357.52998 16.55976,-81.72978 7.83606,-9.57735 c 24.33422,-6.21633 37.89752,-0.12301 54.7341,2.22946 l 17.54891,88.22213 z"
         style="fill:#502d16;stroke:#502d16;stroke-width:0.60947222000000001px;stroke-linecap:butt;stroke-linejoin:miter;stroke-opacity:1" />
      <path
         sodipodi:nodetypes="ccccc"
         inkscape:connector-curvature="0"
         id="path16358-1-7-8"
         d="m 395.66452,414.98701 -0.15387,7.84966 c 21.89556,0.7345 43.62064,0.95769 65.10599,0.46174 l -0.76955,-7.0801 c -20.37837,2.12902 -42.18532,0.68663 -64.18257,-1.2313 z"
         style="fill:#b3b3b3;fill-opacity:1;stroke:#b3b3b3;stroke-width:0.60947222000000001px;stroke-linecap:butt;stroke-linejoin:miter;stroke-opacity:1" />
      <path
         inkscape:connector-curvature="0"
         id="path12690"
         d="m 410.62701,326.31504 c 0,1.01015 -0.25254,13.8896 -0.25254,13.8896 l 30.80965,0.50507 -2.0203,-15.15228 z"
         style="fill:#d38d5f;fill-opacity:1;stroke:#d38d5f;stroke-width:1px;stroke-linecap:butt;stroke-linejoin:miter;stroke-opacity:1" />
      <path
         sodipodi:nodetypes="cccccccccc"
         inkscape:connector-curvature="0"
         id="path16945"
         d="m 406.86163,321.95789 c 3.84475,4.29666 4.99117,8.81817 13.20604,12.75065 2.85384,0.59668 5.49028,1.84556 9.10761,0.15179 5.92816,-2.8909 8.77738,-7.0134 12.90245,-10.62554 2.74753,-3.15524 3.12072,-8.20993 3.94663,-12.90245 2.56792,-7.17226 1.7362,-13.66459 0.30359,-20.03675 0.15988,-13.63308 -1.71806,-25.90761 -23.07261,-25.19772 -16.10466,0.013 -19.37826,10.93227 -19.42958,24.59055 -1.0483,7.25081 -2.27702,14.62791 0.60717,19.12599 0.57977,3.58822 1.44584,7.74906 2.4287,12.14348 z"
         style="fill:#d38d5f;fill-opacity:1;stroke:#d38d5f;stroke-width:0.21251092999999999px;stroke-linecap:butt;stroke-linejoin:miter;stroke-opacity:1" />
      <path
         sodipodi:nodetypes="cccc"
         inkscape:connector-curvature="0"
         id="path16967"
         d="m 418.93316,297.78918 c -6.33847,2.38415 -10.13835,1.98087 -11.32376,-1.07335 7.38191,-8.33688 10.63513,-0.2433 11.37743,-0.0537 z"
         style="fill:#ffffff;stroke:#1a1a1a;stroke-width:0.21251092999999999px;stroke-linecap:butt;stroke-linejoin:miter;stroke-opacity:1" />
      <path
         transform="matrix(0.22004278,0,0,0.21218793,510.70415,247.56287)"
         d="m -431.58769,230.06747 c 0,6.10195 -5.3706,11.04855 -11.99556,11.04855 -6.62497,0 -11.99556,-4.9466 -11.99556,-11.04855 0,-6.10194 5.37059,-11.04854 11.99556,-11.04854 6.62496,0 11.99556,4.9466 11.99556,11.04854 z"
         sodipodi:ry="11.048544"
         sodipodi:rx="11.995562"
         sodipodi:cy="230.06747"
         sodipodi:cx="-443.58325"
         id="path16971"
         style="fill:#502d16;fill-opacity:1;stroke:#502d16;stroke-width:2;stroke-linejoin:miter;stroke-miterlimit:4;stroke-opacity:1;stroke-dasharray:none;stroke-dashoffset:0"
         sodipodi:type="arc" />
      <path
         transform="matrix(0.16938437,0,0,0.16333786,488.39393,259.09914)"
         d="m -431.58769,230.06747 c 0,6.10195 -5.3706,11.04855 -11.99556,11.04855 -6.62497,0 -11.99556,-4.9466 -11.99556,-11.04855 0,-6.10194 5.37059,-11.04854 11.99556,-11.04854 6.62496,0 11.99556,4.9466 11.99556,11.04854 z"
         sodipodi:ry="11.048544"
         sodipodi:rx="11.995562"
         sodipodi:cy="230.06747"
         sodipodi:cx="-443.58325"
         id="path16971-7"
         style="opacity:0.49792533999999999;fill:#000000;fill-opacity:1;stroke:#000000;stroke-width:2;stroke-linejoin:miter;stroke-miterlimit:4;stroke-opacity:1;stroke-dasharray:none;stroke-dashoffset:0;filter:url(#filter17521)"
         sodipodi:type="arc" />
      <path
         transform="matrix(0.13940286,0,0,0.1344266,475.08122,265.78781)"
         d="m -431.58769,230.06747 c 0,6.10195 -5.3706,11.04855 -11.99556,11.04855 -6.62497,0 -11.99556,-4.9466 -11.99556,-11.04855 0,-6.10194 5.37059,-11.04854 11.99556,-11.04854 6.62496,0 11.99556,4.9466 11.99556,11.04854 z"
         sodipodi:ry="11.048544"
         sodipodi:rx="11.995562"
         sodipodi:cy="230.06747"
         sodipodi:cx="-443.58325"
         id="path16971-1"
         style="opacity:0.91959999999999997;fill:#000000;fill-opacity:1;stroke:#000000;stroke-width:2;stroke-linejoin:miter;stroke-miterlimit:4;stroke-opacity:1;stroke-dasharray:none;stroke-dashoffset:0"
         sodipodi:type="arc" />
      <path
         sodipodi:nodetypes="cccccc"
         inkscape:connector-curvature="0"
         id="path16947"
         d="m 419.2015,292.2078 2.25402,-1.61002 c -3.75978,-2.01944 -9.74406,-3.82489 -10.35776,-3.5957 -0.51607,-0.0455 -4.64008,0.72243 -5.90338,3.32737 1.40529,-1.34962 3.55581,-1.95401 5.95705,-2.30769 3.24206,1.06012 5.4535,2.73862 8.05007,4.18604 z"
         style="fill:#784421;stroke:#784421;stroke-width:0.21251092999999999px;stroke-linecap:butt;stroke-linejoin:miter;stroke-opacity:1" />
      <path
         sodipodi:nodetypes="cccccc"
         inkscape:connector-curvature="0"
         id="path16947-6"
         d="m 430.76676,292.19081 -2.25402,-1.61001 c 3.75977,-2.01943 9.74406,-3.82489 10.35776,-3.5957 0.51607,-0.0456 4.64007,0.72242 5.90338,3.32736 -1.4053,-1.34961 -3.55581,-1.95401 -5.95705,-2.30768 -3.24205,1.06013 -5.4535,2.73861 -8.05007,4.18603 z"
         style="fill:#784421;stroke:#784421;stroke-width:0.21251092999999999px;stroke-linecap:butt;stroke-linejoin:miter;stroke-opacity:1" />
      <path
         sodipodi:nodetypes="cccc"
         inkscape:connector-curvature="0"
         id="path16969"
         d="m 407.43086,296.57042 c -0.48168,-2.47827 1.42628,-3.49194 4.06048,-4.06048 3.48789,0.16552 5.99215,1.2535 7.51377,3.98458 -2.88932,-1.02154 -6.27176,-4.01615 -11.57425,0.0759 z"
         style="fill:#800080;stroke:#800080;stroke-width:0.21251092999999999px;stroke-linecap:butt;stroke-linejoin:miter;stroke-opacity:1" />
      <path
         sodipodi:nodetypes="cccc"
         inkscape:connector-curvature="0"
         id="path16967-4"
         d="m 431.37383,297.94131 c 6.33847,2.38416 10.13835,1.98088 11.32376,-1.07334 -3.73299,-7.92292 -10.63513,-0.24331 -11.37743,-0.0537 z"
         style="fill:#ffffff;stroke:#1a1a1a;stroke-width:0.21251092999999999px;stroke-linecap:butt;stroke-linejoin:miter;stroke-opacity:1" />
      <path
         transform="matrix(-0.22004278,0,0,0.21218793,339.60284,247.715)"
         d="m -431.58769,230.06747 c 0,6.10195 -5.3706,11.04855 -11.99556,11.04855 -6.62497,0 -11.99556,-4.9466 -11.99556,-11.04855 0,-6.10194 5.37059,-11.04854 11.99556,-11.04854 6.62496,0 11.99556,4.9466 11.99556,11.04854 z"
         sodipodi:ry="11.048544"
         sodipodi:rx="11.995562"
         sodipodi:cy="230.06747"
         sodipodi:cx="-443.58325"
         id="path16971-70"
         style="fill:#502d16;fill-opacity:1;stroke:#502d16;stroke-width:2;stroke-linejoin:miter;stroke-miterlimit:4;stroke-opacity:1;stroke-dasharray:none;stroke-dashoffset:0"
         sodipodi:type="arc" />
      <path
         transform="matrix(-0.16938437,0,0,0.16333786,362.13404,259.09344)"
         d="m -431.58769,230.06747 c 0,6.10195 -5.3706,11.04855 -11.99556,11.04855 -6.62497,0 -11.99556,-4.9466 -11.99556,-11.04855 0,-6.10194 5.37059,-11.04854 11.99556,-11.04854 6.62496,0 11.99556,4.9466 11.99556,11.04854 z"
         sodipodi:ry="11.048544"
         sodipodi:rx="11.995562"
         sodipodi:cy="230.06747"
         sodipodi:cx="-443.58325"
         id="path16971-7-5"
         style="opacity:0.49792533999999999;fill:#000000;fill-opacity:1;stroke:#000000;stroke-width:2;stroke-linejoin:miter;stroke-miterlimit:4;stroke-opacity:1;stroke-dasharray:none;stroke-dashoffset:0;filter:url(#filter17521-1)"
         sodipodi:type="arc" />
      <path
         transform="matrix(-0.13940286,0,0,0.1344266,375.22577,265.93994)"
         d="m -431.58769,230.06747 c 0,6.10195 -5.3706,11.04855 -11.99556,11.04855 -6.62497,0 -11.99556,-4.9466 -11.99556,-11.04855 0,-6.10194 5.37059,-11.04854 11.99556,-11.04854 6.62496,0 11.99556,4.9466 11.99556,11.04854 z"
         sodipodi:ry="11.048544"
         sodipodi:rx="11.995562"
         sodipodi:cy="230.06747"
         sodipodi:cx="-443.58325"
         id="path16971-1-2"
         style="opacity:0.91959999999999997;fill:#000000;fill-opacity:1;stroke:#000000;stroke-width:2;stroke-linejoin:miter;stroke-miterlimit:4;stroke-opacity:1;stroke-dasharray:none;stroke-dashoffset:0"
         sodipodi:type="arc" />
      <path
         sodipodi:nodetypes="cccc"
         inkscape:connector-curvature="0"
         id="path16969-5"
         d="m 442.87613,296.72255 c 0.48168,-2.47826 -1.42627,-3.49193 -4.06047,-4.06047 -3.18572,0.193 -5.84278,1.26708 -7.51378,3.98458 2.79991,-0.86644 6.16265,-4.73706 11.57425,0.0759 z"
         style="fill:#800080;stroke:#800080;stroke-width:0.21251092999999999px;stroke-linecap:butt;stroke-linejoin:miter;stroke-opacity:1" />
      <path
         sodipodi:nodetypes="cccc"
         inkscape:connector-curvature="0"
         id="path17653"
         d="m 427.01223,298.31605 c 0.41913,3.52064 -0.147,6.68613 1.47998,11.04298 -2.29566,0.73934 -1.44297,-7.24535 -2.201,-11.11888 z"
         style="opacity:0.20000000000000001;fill:#000000;fill-opacity:1;stroke:#000000;stroke-width:0.21251092999999999px;stroke-linecap:butt;stroke-linejoin:miter;stroke-opacity:1" />
      <path
         sodipodi:nodetypes="cccc"
         inkscape:connector-curvature="0"
         id="path17655"
         d="m 423.82456,314.17847 c 0.16846,-0.0361 -1.20136,-1.8749 -1.74563,-1.93537 -1.4144,-0.0684 -1.27151,0.64184 -1.55588,1.13845 0.99851,0.53762 2.00584,1.0517 3.30151,0.79692 z"
         style="opacity:0.20000000000000001;fill:#000000;fill-opacity:1;stroke:#000000;stroke-width:0.21251092999999999px;stroke-linecap:butt;stroke-linejoin:miter;stroke-opacity:1" />
      <path
         sodipodi:nodetypes="cccc"
         inkscape:connector-curvature="0"
         id="path17655-4"
         d="m 427.60755,314.31793 c -0.16846,-0.0361 1.20136,-1.87489 1.74562,-1.93536 1.41441,-0.0684 1.27152,0.64183 1.55588,1.13844 -0.9985,0.53763 -2.00584,1.0517 -3.3015,0.79692 z"
         style="opacity:0.20000000000000001;fill:#000000;fill-opacity:1;stroke:#000000;stroke-width:0.21251092999999999px;stroke-linecap:butt;stroke-linejoin:miter;stroke-opacity:1" />
      <path
         sodipodi:nodetypes="cccc"
         inkscape:connector-curvature="0"
         id="path17675"
         d="m 425.01468,320.47164 c 2.88876,-0.74303 5.82878,-0.96021 7.71492,0.45962 -3.52199,1.5622 -8.68322,3.00848 -14.75869,0.12077 1.37983,-0.73473 3.13536,-1.20324 7.04377,-0.58039 z"
         style="fill:#d35f5f;fill-opacity:1;stroke:#d35f5f;stroke-width:0.16570523000000001px;stroke-linecap:butt;stroke-linejoin:miter;stroke-opacity:1" />
      <path
         sodipodi:nodetypes="cccccc"
         inkscape:connector-curvature="0"
         id="path17677"
         d="m 418.33171,321.60626 c 8.31432,3.00507 10.48453,0.49515 14.94976,0.007 -0.18637,0.88705 -2.71351,1.8704 -3.71056,2.50154 -2.12522,0.67458 -3.37635,1.30448 -7.5895,0.10195 -1.33228,-0.62798 -3.22352,-2.43121 -4.00684,-3.14585 z"
         style="fill:#d35f5f;fill-opacity:1;stroke:#d35f5f;stroke-width:0.16935854000000000px;stroke-linecap:butt;stroke-linejoin:miter;stroke-opacity:1" />
      <path
         sodipodi:nodetypes="ccccc"
         inkscape:connector-curvature="0"
         id="path8458"
         d="m 396.10607,290.9597 49.24493,-18.43528 -14.14213,-8.20749 -24.36993,3.03045 z"
         style="fill:#502d16;fill-opacity:1;stroke:#502d16;stroke-width:1px;stroke-linecap:butt;stroke-linejoin:miter;stroke-opacity:1" />
      <path
         sodipodi:nodetypes="ccccc"
         inkscape:connector-curvature="0"
         id="path12688"
         d="m 389.91888,385.15643 10.85914,-50.12882 c 46.43454,-12.16323 24.7119,-1.62707 53.83768,-0.19761 l 10.05447,48.55866 z"
         style="fill:#d38d5f;fill-opacity:1;stroke:#d38d5f;stroke-width:1px;stroke-linecap:butt;stroke-linejoin:miter;stroke-opacity:1" />
      <path
         sodipodi:nodetypes="cccccccc"
         inkscape:connector-curvature="0"
         id="path12719-6"
         d="m 392.18465,339.03802 c -10.89843,0.31374 -14.57031,5.9809 -16.96429,11.96429 -2.92097,20.81749 0.0414,41.10013 4.46429,61.25 -3.60382,24.14513 -5.17546,51.1353 -6.42857,78.57143 l 11.07143,-2.5 c 7.21711,-21.59241 6.87427,-48.22478 8.81653,-73.33376 -0.49563,-22.78438 -8.47596,-18.70231 -2.1608,-58.56028 z"
         style="fill:#d38d5f;fill-opacity:1;stroke:#d38d5f;stroke-width:1px;stroke-linecap:butt;stroke-linejoin:miter;stroke-opacity:1" />
      <path
         sodipodi:nodetypes="cccccccc"
         inkscape:connector-curvature="0"
         id="path12719-6-6"
         d="m 462.65204,338.66259 c 10.89843,0.31374 14.57031,5.9809 16.96429,11.96429 2.92097,20.81749 -0.0414,41.10013 -4.46429,61.25 3.60382,24.14513 5.17546,51.1353 6.42857,78.57143 l -11.07143,-2.5 c -7.21711,-21.59241 -6.87427,-48.22478 -8.81653,-73.33376 0.49563,-22.78438 8.47596,-18.70231 2.1608,-58.56028 z"
         style="fill:#d38d5f;fill-opacity:1;stroke:#d38d5f;stroke-width:1px;stroke-linecap:butt;stroke-linejoin:miter;stroke-opacity:1" />
      <path
         sodipodi:nodetypes="ccccccc"
         inkscape:connector-curvature="0"
         id="path12757"
         d="M 396.78571,561.6479 397.5,600.93361 c -6.81864,25.55149 -2.45841,65.55249 8.92857,93.57143 l 11.42857,-5.35714 c 2.18919,-25.56709 6.58369,-48.37753 5.35714,-78.21429 0.0292,-13.25322 3.74466,-31.42146 6.42857,-48.21429 z"
         style="fill:#d38d5f;fill-opacity:1;stroke:#d38d5f;stroke-width:1px;stroke-linecap:butt;stroke-linejoin:miter;stroke-opacity:1" />
      <path
         id="path12892-2"
         d="m 396.73222,563.99888 0.6875,37.0625 c -0.85233,3.19394 -1.52015,6.62489 -2.03125,10.21875 -0.5111,3.59386 -0.87641,7.35947 -1.0625,11.25 -0.18609,3.89053 -0.21645,7.88479 -0.0937,11.96875 0.1227,4.08396 0.39722,8.23211 0.8125,12.40625 0.41528,4.17414 0.99587,8.37018 1.6875,12.53125 0.69163,4.16107 1.51699,8.299 2.46875,12.34375 0.95176,4.04475 2.02307,8.01857 3.21875,11.84375 1.15114,3.68272 2.41877,7.20847 3.78125,10.59375 l 0.3125,-8.15625 c -8.37184,-31.22563 -8.47018,-60.18867 -2.03125,-87.375 l 1.28125,-33.71875 -9.03125,-0.96875 z"
         style="opacity:0.20000000000000001;fill:#000000;stroke:#000000;stroke-width:1px;stroke-linecap:butt;stroke-linejoin:miter;stroke-opacity:1"
         inkscape:connector-curvature="0" />
      <path
         sodipodi:nodetypes="ccccccc"
         inkscape:connector-curvature="0"
         id="path12757-8"
         d="m 470.84333,560.85989 -6.42858,55.71428 c -0.33156,27.84369 -8.69262,45.55517 -20.71428,73.92857 l -13.21428,-2.14285 c -2.18919,-25.56709 6.27345,-48.73467 7.5,-78.57143 -0.0292,-13.25322 2.68391,-31.06432 0,-47.85715 z"
         style="fill:#d38d5f;fill-opacity:1;stroke:#d38d5f;stroke-width:1px;stroke-linecap:butt;stroke-linejoin:miter;stroke-opacity:1" />
      <path
         id="path12919"
         d="m 444.55234,561.832 -6.6875,0.21875 c 0.67098,4.19821 1.00147,8.44914 1.125,12.6875 0.12353,4.23836 0.0133,8.45823 -0.15625,12.5625 -0.33914,8.20853 -0.98335,15.96714 -0.96875,22.59375 -0.15332,3.7296 -0.43674,7.36735 -0.78125,10.90625 -0.34451,3.5389 -0.75293,6.99138 -1.21875,10.375 -0.93165,6.76724 -2.03359,13.26631 -3.03125,19.625 -0.99766,6.35869 -1.90157,12.57897 -2.40625,18.8125 -0.25234,3.11677 -0.41322,6.23639 -0.4375,9.375 -0.0228,2.95266 0.10475,5.93508 0.34375,8.9375 l 2.625,0.125 c 5.77311,-41.01344 11.39095,-82.11068 11.59375,-126.21875 z"
         style="opacity:0.20000000000000001;fill:#000000;stroke:#000000;stroke-width:1px;stroke-linecap:butt;stroke-linejoin:miter;stroke-opacity:1"
         inkscape:connector-curvature="0" />
      <path
         inkscape:export-ydpi="90"
         inkscape:export-xdpi="90"
         inkscape:export-filename="/home/jvhoof/Dropbox/Games for design and play/PROJECT FOLDER/Assets/Backgrounds/isis.png"
         inkscape:connector-curvature="0"
         sodipodi:nodetypes="ccccccccccc"
         id="path2716-4-8-7"
         d="m 468.14227,488.23168 c -0.65526,3.27557 -2.11547,6.64899 -3.69551,10.10952 -2.08867,3.31509 -2.22442,7.54575 -1.64124,11.56004 l -0.21405,3.78197 c 5.88126,0.70394 0.19896,-7.14534 3.92468,-10.06151 l 0.57086,5.42323 c 1.06643,1.01501 2.11771,1.81826 2.99705,0.21408 1.04659,1.17216 2.09318,1.08749 3.13976,-0.21408 1.27961,1.65454 2.32429,0.4899 3.42519,0 1.17319,0.91771 2.41516,1.24383 3.21112,-0.8563 0.23139,-5.72811 2.3239,-10.97512 1.91301,-19.37918"
         style="fill:#d38d5f;fill-opacity:1;fill-rule:evenodd;stroke:#d38d5f;stroke-width:0.14128198000000000px;stroke-linecap:round;stroke-linejoin:round;stroke-opacity:1" />
      <path
         sodipodi:nodetypes="ccccc"
         inkscape:connector-curvature="0"
         id="path13054"
         d="m 373.63018,371.26683 17.04632,0 0,7.3236 -17.42513,0 z"
         style="fill:#ffcc00;stroke:#ffcc00;stroke-width:1px;stroke-linecap:butt;stroke-linejoin:miter;stroke-opacity:1" />
      <path
         sodipodi:nodetypes="ccccc"
         inkscape:connector-curvature="0"
         id="path13054-5"
         d="m 463.91256,370.63549 17.04632,0 0,7.3236 -17.42513,0 z"
         style="fill:#ffcc00;stroke:#ffcc00;stroke-width:1px;stroke-linecap:butt;stroke-linejoin:miter;stroke-opacity:1" />
      <g
         id="g12694">
        <path
           style="fill:#660080;stroke:#660080;stroke-width:0.42752858999999999px;stroke-linecap:butt;stroke-linejoin:miter;stroke-opacity:1"
           d="m 399.97798,334.56362 -11.87641,4.53463 c 2.67579,16.59569 2.12904,31.98293 0.21594,46.85779 3.02193,14.14429 7.07641,27.77231 7.98958,42.97098 -12.4153,44.45138 -19.11334,91.04673 -27.20776,137.11844 5.65552,2.02338 11.47497,4.57955 14.89949,-0.6478 l 0.6478,7.34177 c 3.80666,2.38177 7.12711,0.87388 10.36486,-1.29561 l 0.86374,3.67089 c 12.2673,0.88863 10.3727,-5.72023 13.81981,-9.50112 l 5.83023,2.59122 -0.43187,6.69397 c 7.72062,4.46915 9.02432,-0.22872 13.17201,-0.86374 11.31114,3.71965 14.12091,-1.46688 13.38794,-10.36486 l 6.26211,2.37528 -0.64781,6.47804 c 3.35507,0.89722 5.26168,3.5326 11.2286,1.2956 l 1.2956,-3.23901 3.23903,-2.15935 c 6.81515,6.17798 10.86002,3.58343 14.25167,-1.07967 4.03078,1.19282 8.06156,-1.06192 12.09234,-2.59122 -7.98486,-45.9306 -12.37656,-92.26044 -30.0149,-137.11844 0.161,-15.97063 3.82315,-30.19069 7.34177,-44.48252 -3.13285,-14.97146 -0.77454,-29.94292 -0.21593,-44.91438 l -12.74014,-3.88683 c -5.76227,6.08128 -6.42173,25.54812 -24.55006,24.10224 -24.48345,0.45655 -22.58676,-18.56703 -29.21764,-23.8863 z"
           id="path8471"
           inkscape:connector-curvature="0"
           sodipodi:nodetypes="ccccccccccccccccccccccccccc" />
        <path
           style="opacity:0.20000000000000001;fill:#000000;stroke:#000000;stroke-width:0.87452370000000001px;stroke-linecap:butt;stroke-linejoin:miter;stroke-opacity:1"
           d="m 393.48559,379.94435 c 10.64461,6.08652 20.0586,4.78934 29.0467,0.93707 -4.99729,3.64386 -1.24787,10.20324 -14.9918,10.93153 -9.47843,-1.55945 -10.85537,-7.16969 -14.0549,-11.8686 z"
           id="path17952-4"
           inkscape:connector-curvature="0"
           sodipodi:nodetypes="cccc" />
        <path
           style="opacity:0.20000000000000001;fill:#000000;stroke:#000000;stroke-width:0.92354309999999995px;stroke-linecap:butt;stroke-linejoin:miter;stroke-opacity:1"
           d="m 430.36768,381.60372 c 11.24128,6.42768 21.18295,5.0578 30.67485,0.98959 -5.27741,3.84812 -1.3178,10.77516 -15.83211,11.54428 -10.00974,-1.64686 -11.46385,-7.57157 -14.84274,-12.53387 z"
           id="path17952-9-4"
           inkscape:connector-curvature="0"
           sodipodi:nodetypes="cccc" />
        <path
           style="opacity:0.20000000000000001;fill:#000000;stroke:#000000;stroke-width:1px;stroke-linecap:butt;stroke-linejoin:miter;stroke-opacity:1"
           d="m 459.82143,429.05862 2.76786,7.49999 -68.03572,0.0893 2.05357,-7.5 z"
           id="path8473"
           inkscape:connector-curvature="0"
           sodipodi:nodetypes="ccccc" />
        <g
           id="g8522"
           transform="matrix(0.4368961,0,0,0.4368961,3.6982,243.63356)">
          <path
             sodipodi:nodetypes="ccccc"
             inkscape:connector-curvature="0"
             id="path8475"
             d="m 869.73994,737.69966 c 9.30689,-100.70131 1.69854,-172.52069 27.92663,-270.77962 -34.70902,62.6639 -38.68776,165.90318 -61.33461,270.78382 10.06033,2.59233 20.35899,12.73384 33.40798,-0.004 z"
             style="opacity:0.20000000000000001;fill:#000000;stroke:#000000;stroke-width:1px;stroke-linecap:butt;stroke-linejoin:miter;stroke-opacity:1" />
          <path
             sodipodi:nodetypes="cccc"
             inkscape:connector-curvature="0"
             id="path8477"
             d="m 912.64949,466.14925 c -4.93118,107.22249 -8.43989,181.15796 -14.63554,292.17386 l -2.5984,-7.98487 C 885.07703,644.7773 901.91928,571.71019 912.64949,466.14925 z"
             style="opacity:0.20000000000000001;fill:#000000;stroke:#000000;stroke-width:1px;stroke-linecap:butt;stroke-linejoin:miter;stroke-opacity:1" />
          <path
             sodipodi:nodetypes="cccc"
             inkscape:connector-curvature="0"
             id="path8479"
             d="m 929.17097,737.26761 c -1.35658,-105.48827 2.11915,-171.61857 12.77294,-274.43787 -1.30036,106.5652 -2.51839,178.61942 0.19271,279.83601 z"
             style="opacity:0.20000000000000001;fill:#000000;stroke:#000000;stroke-width:1px;stroke-linecap:butt;stroke-linejoin:miter;stroke-opacity:1" />
          <path
             sodipodi:nodetypes="cccc"
             inkscape:connector-curvature="0"
             id="path8479-8"
             d="m 970.94379,756.39028 c -5.95423,-108.24686 -10.61994,-186.7249 1.91847,-288.41342 11.87759,107.57889 10.71009,189.9496 10.4833,290.9402 -4.28293,0.38089 -8.29477,-2.56191 -12.40177,-2.52678 z"
             style="opacity:0.20000000000000001;fill:#000000;stroke:#000000;stroke-width:1px;stroke-linecap:butt;stroke-linejoin:miter;stroke-opacity:1" />
          <path
             sodipodi:nodetypes="ccccc"
             inkscape:connector-curvature="0"
             id="path8499"
             d="m 1008.2052,461.96865 c -4.2408,33.92884 -7.0353,44.08881 -6.1339,90.8731 l 1.1795,180.02318 13.0182,5.18211 c 2.4494,-97.81644 12.4248,-178.26195 -8.0638,-276.07839 z"
             style="opacity:0.20000000000000001;fill:#000000;stroke:#000000;stroke-width:1px;stroke-linecap:butt;stroke-linejoin:miter;stroke-opacity:1" />
          <path
             sodipodi:nodetypes="cccccc"
             inkscape:connector-curvature="0"
             id="path8501"
             d="m 1051.5719,571.85341 -0.3621,171.70864 -6.7412,4.17779 -15.1961,-245.43811 5.5324,-44.17084 z"
             style="opacity:0.20000000000000001;fill:#000000;stroke:#000000;stroke-width:1px;stroke-linecap:butt;stroke-linejoin:miter;stroke-opacity:1" />
          <path
             sodipodi:nodetypes="cccccc"
             inkscape:connector-curvature="0"
             id="path8503"
             d="m 1048.3457,459.56596 17.3653,107.923 c 14.8502,69.5204 14.9923,80.13541 19.6979,119.198 l -0.9605,54.76427 c 7.159,1.26496 12.3996,-0.29698 13.094,-2.91078 4.7201,-2.36004 -44.1854,-284.00554 -49.1967,-278.97449 z"
             style="opacity:0.20000000000000001;fill:#000000;stroke:#000000;stroke-width:1px;stroke-linecap:butt;stroke-linejoin:miter;stroke-opacity:1" />
        </g>
      </g>
      <path
         inkscape:export-ydpi="90"
         inkscape:export-xdpi="90"
         inkscape:export-filename="/home/jvhoof/Dropbox/Games for design and play/PROJECT FOLDER/Assets/Backgrounds/isis.png"
         inkscape:connector-curvature="0"
         sodipodi:nodetypes="ccccccccccc"
         id="path2716-4-8"
         d="m 382.54659,489.26948 c 0.46594,3.26696 1.50425,6.63152 2.62777,10.08297 1.48519,3.30637 1.58173,7.52592 1.16704,11.52967 l 0.1522,3.77204 c -4.18199,0.70209 -0.14146,-7.12658 -2.79072,-10.03508 l -0.40592,5.40898 c -0.75831,1.01234 -1.50585,1.81348 -2.13112,0.21352 -0.7442,1.16908 -1.4884,1.08463 -2.23259,-0.21352 -0.9099,1.65019 -1.65274,0.48861 -2.43556,0 -0.83422,0.9153 -1.71735,1.24056 -2.28333,-0.85405 -0.16454,-5.71307 -1.65246,-10.94629 -1.36029,-19.32829"
         style="fill:#d38d5f;fill-opacity:1;fill-rule:evenodd;stroke:#d38d5f;stroke-width:0.11897953999999999px;stroke-linecap:round;stroke-linejoin:round;stroke-opacity:1" />
      <path
         sodipodi:nodetypes="cccccccccc"
         inkscape:connector-curvature="0"
         id="path12812"
         d="m 405.19744,687.69711 c -1.07486,3.82262 -2.70315,7.46077 -0.88388,12.2481 -2.0624,9.21764 -1.94742,18.43529 -6.18719,27.65293 -0.79448,4.5549 -1.29971,9.03749 -0.75761,13.25825 3.498,3.40812 7.54524,5.95314 13.38452,5.68211 l 8.83884,-1.13642 c 0.76473,-5.21912 0.53882,-10.43825 -0.37881,-15.65737 l 1.76777,-30.17831 c 0.5892,-6.27124 -0.75133,-8.68306 -1.76777,-11.74302 z"
         style="fill:#d38d5f;fill-opacity:1;stroke:#d38d5f;stroke-width:1px;stroke-linecap:butt;stroke-linejoin:miter;stroke-opacity:1" />
      <path
         sodipodi:nodetypes="cccccccccc"
         inkscape:connector-curvature="0"
         id="path12812-5"
         d="m 444.86825,685.54065 c 1.07486,3.82262 2.70315,7.46077 0.88388,12.2481 2.0624,9.21764 1.94742,18.43529 6.18719,27.65293 0.79448,4.5549 1.29971,9.03749 0.75761,13.25825 -3.498,3.40812 -7.54524,5.95314 -13.38452,5.68211 l -8.83884,-1.13642 c -0.76473,-5.21912 -0.53882,-10.43825 0.37881,-15.65737 l -1.76777,-30.17831 c -0.5892,-6.27124 0.75133,-8.68306 1.76777,-11.74302 z"
         style="fill:#d38d5f;fill-opacity:1;stroke:#d38d5f;stroke-width:1px;stroke-linecap:butt;stroke-linejoin:miter;stroke-opacity:1" />
      <path
         sodipodi:nodetypes="ccccc"
         inkscape:connector-curvature="0"
         id="path16354-2-4-7-5"
         d="m 428.8942,740.44195 c 9.08708,2.73465 15.96246,2.13529 24.76903,-2.57116 l 1.22327,4.10406 c -7.35827,3.17062 -16.11541,4.17693 -25.53519,1.436 -1.58257,-1.2527 -0.38855,-1.94214 -0.45711,-2.9689 z"
         style="fill:#784421;fill-opacity:1;stroke:#784421;stroke-width:0.60947222000000001px;stroke-linecap:butt;stroke-linejoin:miter;stroke-opacity:1" />
      <path
         sodipodi:nodetypes="ccccc"
         inkscape:connector-curvature="0"
         id="path17670-4-6-1-9-5"
         d="m 429.52552,688.57219 17.00561,0.52196 -0.22036,-4.37563 -16.76381,-0.7923 z"
         style="fill:#784421;fill-opacity:1;stroke:#784421;stroke-width:0.74642527000000003px;stroke-linecap:butt;stroke-linejoin:miter;stroke-opacity:1" />
      <path
         sodipodi:nodetypes="ccccc"
         inkscape:connector-curvature="0"
         id="path17694-9-9-5-6"
         d="m 430.40413,722.33592 20.77456,-0.34344 1.92889,3.98798 -22.20727,1.05937 z"
         style="fill:#502d16;stroke:#502d16;stroke-width:0.60947222000000001px;stroke-linecap:butt;stroke-linejoin:miter;stroke-opacity:1" />
      <path
         sodipodi:nodetypes="ccccc"
         inkscape:connector-curvature="0"
         id="path17696-3-2-2-5"
         d="m 430.25966,732.63041 23.39995,-0.6572 -0.19559,3.5493 -23.97467,-0.21312 z"
         style="fill:#502d16;stroke:#502d16;stroke-width:0.60947222000000001px;stroke-linecap:butt;stroke-linejoin:miter;stroke-opacity:1" />
      <path
         sodipodi:nodetypes="ccccc"
         inkscape:connector-curvature="0"
         id="path16354-2-4-7-5-5"
         d="m 421.41898,742.1187 c -9.08708,2.73465 -15.96246,2.13529 -24.76903,-2.57116 l -1.22327,4.10406 c 7.35827,3.17062 16.11541,4.17693 25.53519,1.436 1.58257,-1.2527 0.38855,-1.94214 0.45711,-2.9689 z"
         style="fill:#784421;fill-opacity:1;stroke:#784421;stroke-width:0.60947222000000001px;stroke-linecap:butt;stroke-linejoin:miter;stroke-opacity:1" />
      <path
         sodipodi:nodetypes="ccccc"
         inkscape:connector-curvature="0"
         id="path17694-9-9-5-6-3"
         d="m 419.90905,724.01267 -20.77456,-0.34344 -1.92889,3.98798 22.20727,1.05937 z"
         style="fill:#502d16;stroke:#502d16;stroke-width:0.60947222000000001px;stroke-linecap:butt;stroke-linejoin:miter;stroke-opacity:1" />
      <path
         sodipodi:nodetypes="ccccc"
         inkscape:connector-curvature="0"
         id="path17696-3-2-2-5-3"
         d="m 420.05352,734.30716 -23.39995,-0.6572 0.19559,3.5493 23.97467,-0.21312 z"
         style="fill:#502d16;stroke:#502d16;stroke-width:0.60947222000000001px;stroke-linecap:butt;stroke-linejoin:miter;stroke-opacity:1" />
      <path
         sodipodi:nodetypes="ccccc"
         inkscape:connector-curvature="0"
         id="path17670-4-6-1-9-5-4"
         d="m 420.51877,690.13793 -17.00561,0.52196 0.22036,-4.37563 16.76381,-0.7923 z"
         style="fill:#784421;fill-opacity:1;stroke:#784421;stroke-width:0.74642527000000003px;stroke-linecap:butt;stroke-linejoin:miter;stroke-opacity:1" />
      <path
         sodipodi:nodetypes="zzzzz"
         inkscape:connector-curvature="0"
         id="path13032"
         d="m 411.18072,607.75462 c -6.129,-0.72062 -7.01873,0.0603 -6.69089,5.45175 0.32783,5.39156 0.93849,13.79441 7.1688,14.21355 6.23032,0.41913 6.1781,-5.27028 6.21296,-11.29294 0.035,-6.02268 -0.56187,-7.65176 -6.69087,-8.37236 z"
         style="opacity:0.10000000000000001;fill:#000000;stroke:#000000;stroke-width:0.85413307000000005px;stroke-linecap:butt;stroke-linejoin:miter;stroke-opacity:1" />
      <path
         sodipodi:nodetypes="zzzzz"
         inkscape:connector-curvature="0"
         id="path13032-2"
         d="m 455.04505,609.27685 c 6.129,-0.72062 7.01873,0.0603 6.69089,5.45175 -0.32783,5.39156 -0.93849,13.79441 -7.1688,14.21355 -6.23032,0.41913 -6.1781,-5.27028 -6.21296,-11.29294 -0.035,-6.02268 0.56187,-7.65176 6.69087,-8.37236 z"
         style="opacity:0.10000000000000001;fill:#000000;stroke:#000000;stroke-width:0.85413307000000005px;stroke-linecap:butt;stroke-linejoin:miter;stroke-opacity:1" />
      <path
         sodipodi:nodetypes="ccccc"
         inkscape:connector-curvature="0"
         id="path13052"
         d="m 410.61911,327.55405 c 10.84297,10.23677 20.0445,11.08732 28.86772,0.11675 l 0.0593,0.33608 c -10.28808,12.40631 -19.31123,8.38181 -28.93096,-0.0978 z"
         style="opacity:0.20000000000000001;fill:none;stroke:#000000;stroke-width:1px;stroke-linecap:butt;stroke-linejoin:miter;stroke-opacity:1" />
    </g>
  </g>
</svg>
