<?xml version="1.0" encoding="UTF-8" standalone="no"?>
<!-- Created with Inkscape (http://www.inkscape.org/) -->

<svg
   xmlns:dc="http://purl.org/dc/elements/1.1/"
   xmlns:cc="http://creativecommons.org/ns#"
   xmlns:rdf="http://www.w3.org/1999/02/22-rdf-syntax-ns#"
   xmlns:svg="http://www.w3.org/2000/svg"
   xmlns="http://www.w3.org/2000/svg"
   xmlns:sodipodi="http://sodipodi.sourceforge.net/DTD/sodipodi-0.dtd"
   xmlns:inkscape="http://www.inkscape.org/namespaces/inkscape"
   width="640"
   height="640"
   id="svg11977"
   version="1.1"
   inkscape:version="0.48.4 r9939"
   sodipodi:docname="New document 24">
  <defs
     id="defs11979" />
  <sodipodi:namedview
     id="base"
     pagecolor="#ffffff"
     bordercolor="#666666"
     borderopacity="1.0"
     inkscape:pageopacity="0.0"
     inkscape:pageshadow="2"
     inkscape:zoom="0.7"
     inkscape:cx="213.30784"
     inkscape:cy="342.70401"
     inkscape:document-units="px"
     inkscape:current-layer="layer1"
     showgrid="false"
     inkscape:window-width="1600"
     inkscape:window-height="843"
     inkscape:window-x="0"
     inkscape:window-y="0"
     inkscape:window-maximized="1" />
  <metadata
     id="metadata11982">
    <rdf:RDF>
      <cc:Work
         rdf:about="">
        <dc:format>image/svg+xml</dc:format>
        <dc:type
           rdf:resource="http://purl.org/dc/dcmitype/StillImage" />
        <dc:title></dc:title>
      </cc:Work>
    </rdf:RDF>
  </metadata>
  <g
     inkscape:label="Layer 1"
     inkscape:groupmode="layer"
     id="layer1"
     transform="translate(0,-412.36218)">
    <g
       id="g12022"
       transform="matrix(1.6499525,0,0,1.6499525,-30.949907,-618.88622)">
      <path
         sodipodi:nodetypes="zcccczccccccccczcczcccccccccz"
         inkscape:connector-curvature="0"
         id="path11996"
         d="m 139.19906,998.92074 c 14.10654,-1.96621 -45.156513,-49.38851 -14.91334,-80.84427 61.15975,38.68662 128.11284,51.77907 171.82596,-0.12255 l 20.31689,31.55112 c -23.2006,32.56794 -33.4723,51.08276 -25.71428,50 14.39807,6.24046 40.29364,-42.24931 43.48477,-51.76034 3.19113,-9.51102 -30.93612,-56.81109 -31.34191,-56.81109 l -2.14286,-52.14286 c 56.88864,-1.22968 38.00561,76.08732 43.99728,71.31345 32.55633,-43.49627 9.54637,-67.97705 -41.14014,-92.02773 L 300,775.93361 c 42.56845,3.50469 51.95873,-13.09861 27.85715,-50 -44.53112,-69.87373 -64.03471,-79.21573 -80,-80 -15.29348,17.07425 52.87416,40.2206 70.55584,105.45431 -5.57246,8.55569 -28.37352,5.7127 -49.84156,-6.88288 -14.12809,-17.10468 -4.46171,-57.26254 -55.5843,-58.90319 -51.12259,-1.64065 -52.33396,38.73489 -65.12998,63.1889 -12.27056,5.77876 -24.57577,11.47666 -40.79351,8.04532 -23.971633,-29.65007 82.58164,-100.20952 69.86258,-110.69326 -12.71906,-10.48373 -82.086583,52.45456 -96.211933,104.7908 7.40964,21.76168 23.334343,27.55763 41.428573,29.28571 l 0.12998,34.95668 c -57.100033,38.29559 -33.033933,25.60931 -48.701413,37.90047 -14.78579,49.16377 -10.45986,57.69189 -4.79079,60.00743 9.06137,9.42319 13.88689,-32.856 20.50508,-47.86458 9.26768,-15.23448 19.642213,-17.34255 29.538253,-24.40826 l -0.96682,50.12255 c -11.68302,15.0903 -24.921293,30.42617 -24.285723,43.57143 7.117273,48.06803 31.521093,66.38196 45.627633,64.4157 z"
         style="fill:#000000;stroke:#000000;stroke-width:1px;stroke-linecap:butt;stroke-linejoin:miter;stroke-opacity:1" />
      <path
         sodipodi:nodetypes="ccccc"
         inkscape:connector-curvature="0"
         id="path11998"
         d="m 203.92857,933.07647 2.14286,-92.85715 C 179.52333,817.63306 163.10785,821.10209 142.5,813.79075 c -14.76597,19.79013 -4.28912,61.45737 -6.07143,92.5 23.23644,12.3653 46.99246,27.15528 67.5,26.78572 z"
         style="fill:#ffcc00;stroke:#ffcc00;stroke-width:1px;stroke-linecap:butt;stroke-linejoin:miter;stroke-opacity:1" />
      <path
         sodipodi:nodetypes="ccccc"
         inkscape:connector-curvature="0"
         id="path11998-3"
         d="m 221.70049,931.6445 -2.14286,-92.85715 c 26.5481,-22.58626 42.96358,-19.11723 63.57143,-26.42857 14.76597,19.79013 4.28912,61.45737 6.07143,92.5 -23.23644,12.3653 -46.99246,27.15528 -67.5,26.78572 z"
         style="fill:#ffcc00;stroke:#ffcc00;stroke-width:1px;stroke-linecap:butt;stroke-linejoin:miter;stroke-opacity:1" />
      <path
         sodipodi:nodetypes="cccccc"
         inkscape:connector-curvature="0"
         id="path12018"
         d="m 213.57143,825.21932 c -19.45235,-12.17859 -40.53316,-23.54294 -75,-28.21428 1.80094,-32.20397 21.82503,-40.3865 44.28572,-45.35715 l 60,0.35715 c 38.98861,10.14182 38.27691,29.44525 41.42857,47.85714 -25.58022,3.09562 -50.74869,7.28923 -70.71429,25.35714 z"
         style="fill:#ffcc00;stroke:#ffcc00;stroke-width:1px;stroke-linecap:butt;stroke-linejoin:miter;stroke-opacity:1" />
      <path
         sodipodi:nodetypes="czcc"
         inkscape:connector-curvature="0"
         id="path12020"
         d="m 170.74574,737.3972 c -7.13949,0.4327 6.67843,-41.3508 40.91118,-42.17387 34.23275,-0.82307 41.16371,42.93148 41.16371,42.93148 z"
         style="fill:#ffcc00;stroke:#ffcc00;stroke-width:1px;stroke-linecap:butt;stroke-linejoin:miter;stroke-opacity:1" />
    </g>
  </g>
</svg>
