<?xml version="1.0" encoding="UTF-8" standalone="no"?>
<!-- Created with Inkscape (http://www.inkscape.org/) -->

<svg
   xmlns:dc="http://purl.org/dc/elements/1.1/"
   xmlns:cc="http://creativecommons.org/ns#"
   xmlns:rdf="http://www.w3.org/1999/02/22-rdf-syntax-ns#"
   xmlns:svg="http://www.w3.org/2000/svg"
   xmlns="http://www.w3.org/2000/svg"
   xmlns:sodipodi="http://sodipodi.sourceforge.net/DTD/sodipodi-0.dtd"
   xmlns:inkscape="http://www.inkscape.org/namespaces/inkscape"
   width="640"
   height="640"
   id="svg3105"
   version="1.1"
   inkscape:version="0.48.4 r9939"
   sodipodi:docname="New document 5">
  <defs
     id="defs3107" />
  <sodipodi:namedview
     id="base"
     pagecolor="#ffffff"
     bordercolor="#666666"
     borderopacity="1.0"
     inkscape:pageopacity="0.0"
     inkscape:pageshadow="2"
     inkscape:zoom="0.98994949"
     inkscape:cx="191.96757"
     inkscape:cy="318.04766"
     inkscape:document-units="px"
     inkscape:current-layer="layer1"
     showgrid="false"
     showguides="true"
     inkscape:guide-bbox="true"
     inkscape:window-width="1600"
     inkscape:window-height="843"
     inkscape:window-x="0"
     inkscape:window-y="0"
     inkscape:window-maximized="1" />
  <metadata
     id="metadata3110">
    <rdf:RDF>
      <cc:Work
         rdf:about="">
        <dc:format>image/svg+xml</dc:format>
        <dc:type
           rdf:resource="http://purl.org/dc/dcmitype/StillImage" />
        <dc:title></dc:title>
      </cc:Work>
    </rdf:RDF>
  </metadata>
  <g
     inkscape:label="Layer 1"
     inkscape:groupmode="layer"
     id="layer1"
     transform="translate(0,-412.36218)">
    <path
       style="fill:#ee1b24;fill-opacity:1;stroke:#aa0000;stroke-width:4;stroke-linecap:butt;stroke-linejoin:miter;stroke-miterlimit:4;stroke-opacity:1;stroke-dasharray:none"
       d="m 315.25907,761.03514 c -19.54217,56.86933 -15.08647,117.53223 9.10715,172.5 -23.76018,-9.95463 -34.49738,-25.6068 -43.21429,-42.14286 l 0.35714,40.71429 C 266.14818,901.05379 246.12195,879.10955 249.72336,811.03514 l 22.67857,-68.92857 -24.46428,74.28571 c -48.12276,35.31932 -97.11566,50.62561 -147.14287,42.14286 27.71964,-5.73964 36.18068,-16.01071 48.57144,-25.35714 -21.76849,7.54714 -42.74474,0.83377 -63.571435,-8.57143 C 152.00722,816.1249 217.52937,795.85946 249.90193,735.678 z"
       id="path3908"
       inkscape:connector-curvature="0"
       sodipodi:nodetypes="cccccccccccc" />
    <path
       style="fill:#e3d3af;fill-opacity:1;stroke:#e3d3af;stroke-width:1px;stroke-linecap:butt;stroke-linejoin:miter;stroke-opacity:1"
       d="m 511.89481,828.6134 20.20304,-64.64977 70.20561,26.51651 -51.26524,100.0051 -61.87184,-25.25382 z"
       id="path3912"
       inkscape:connector-curvature="0"
       sodipodi:nodetypes="cccccc" />
    <path
       style="fill:#e3d3af;fill-opacity:1;stroke:#d1b77c;stroke-width:4;stroke-linecap:butt;stroke-linejoin:miter;stroke-miterlimit:4;stroke-opacity:1;stroke-dasharray:none"
       d="m 567.22336,814.60657 c 13.90146,5.60114 27.17647,16.84035 42.85714,6.42857 3.46161,6.90476 6.58058,13.80952 0.71429,20.71428 -14.04762,11.1984 -28.09524,5.53847 -42.14286,4.28572 m 0,0 c 0,0 -9.42401,-14.25322 -7.14286,-21.42857 5.72791,-18.01714 11.22195,-33.61263 45.71429,-33.57143 26.28383,5.13354 41.9846,65.59958 -37.85714,97.85714 -32.56713,7.37387 -61.32749,-8.91651 -57.85715,-57.14286 C 533.18062,762.11728 561.55478,761.7456 588.65193,748.178 447.64298,712.20628 360.52431,741.17926 81.50907,538.89228 48.230082,559.40006 26.293601,588.67197 46.617392,665.38213 382.08226,744.26715 453.55459,885.25928 544.83169,889.3107"
       id="path3132"
       inkscape:connector-curvature="0"
       sodipodi:nodetypes="cccccaccccccc" />
    <path
       style="fill:#d1b77c;fill-opacity:1;stroke:#d1b77c;stroke-width:4;stroke-linecap:butt;stroke-linejoin:miter;stroke-miterlimit:4;stroke-opacity:1;stroke-dasharray:none"
       d="M 569.45288,846.45356 513.30902,827.88213"
       id="path3904"
       inkscape:connector-curvature="0"
       sodipodi:nodetypes="cc" />
    <path
       style="fill:#ee1b24;fill-opacity:1;stroke:#aa0000;stroke-width:3;stroke-linecap:butt;stroke-linejoin:miter;stroke-miterlimit:4;stroke-opacity:1;stroke-dasharray:none"
       d="m 308.60161,763.45856 c -13.25627,-56.79808 17.04461,-63.12517 44.95179,-72.22591 -2.39808,-12.00525 -23.3678,-14.32095 -40.40611,-18.68782 -11.97656,-4.80111 -19.07861,-8.99291 -25.75889,-13.13199 -34.60881,14.45439 -45.58117,42.34912 -45.96194,76.26652 8.03786,5.42445 13.05937,8.82049 28.53681,10.35407 12.38086,8.79987 24.92866,16.59815 38.63834,17.42513 z"
       id="path3906"
       inkscape:connector-curvature="0"
       sodipodi:nodetypes="ccccccc" />
    <path
       style="fill:#d1b77c;fill-opacity:1;stroke:#d1b77c;stroke-width:4;stroke-linecap:butt;stroke-linejoin:miter;stroke-miterlimit:4;stroke-opacity:1;stroke-dasharray:none"
       d="M 607.11132,790.70338 546.39704,770.36046"
       id="path3910"
       inkscape:connector-curvature="0"
       sodipodi:nodetypes="cc" />
  </g>
</svg>
